<?xml version="1.0" encoding="utf-8" standalone="no"?>
<!DOCTYPE svg PUBLIC "-//W3C//DTD SVG 1.1//EN"
  "http://www.w3.org/Graphics/SVG/1.1/DTD/svg11.dtd">
<svg xmlns:xlink="http://www.w3.org/1999/xlink" width="792pt" height="374.4pt" viewBox="0 0 792 374.4" xmlns="http://www.w3.org/2000/svg" version="1.1">
 <metadata>
  <rdf:RDF xmlns:dc="http://purl.org/dc/elements/1.1/" xmlns:cc="http://creativecommons.org/ns#" xmlns:rdf="http://www.w3.org/1999/02/22-rdf-syntax-ns#">
   <cc:Work>
    <dc:type rdf:resource="http://purl.org/dc/dcmitype/StillImage"/>
    <dc:date>2026-09-14T17:35:42.410350</dc:date>
    <dc:format>image/svg+xml</dc:format>
    <dc:creator>
     <cc:Agent>
      <dc:title>Matplotlib v3.11.1, https://matplotlib.org/</dc:title>
     </cc:Agent>
    </dc:creator>
   </cc:Work>
  </rdf:RDF>
 </metadata>
 <defs>
  <style type="text/css">*{stroke-linejoin: round; stroke-linecap: butt}</style>
 </defs>
 <g id="figure_1">
  <g id="patch_1">
   <path d="M 0 374.4 
L 792 374.4 
L 792 0 
L 0 0 
z
" style="fill: #ffffff"/>
  </g>
  <g id="axes_1">
   <g id="patch_2">
    <path d="M 95.04 303.264 
L 768.24 303.264 
L 768.24 44.928 
L 95.04 44.928 
z
" style="fill: #ffffff"/>
   </g>
   <g id="matplotlib.axis_1">
    <g id="xtick_1">
     <g id="line2d_1">
      <path d="M 95.04 303.264 
L 95.04 44.928 
" clip-path="url(#p0cd89af68d)" style="fill: none; stroke: #b0b0b0; stroke-opacity: 0.18; stroke-width: 0.8; stroke-linecap: square"/>
     </g>
     <g id="line2d_2">
      <defs>
       <path id="m0a878667e7" d="M 0 0 
L 0 3.5 
" style="stroke: #000000; stroke-width: 0.8"/>
      </defs>
      <g>
       <use xlink:href="#m0a878667e7" x="95.04" y="303.264" style="stroke: #000000; stroke-width: 0.8"/>
      </g>
     </g>
     <g id="text_1">
      <!-- 0 -->
      <g transform="translate(91.540625 318.621422) scale(0.11 -0.11)">
       <defs>
        <path id="DejaVuSans-13" d="M 2034 4250 
Q 1547 4250 1301 3770 
Q 1056 3291 1056 2328 
Q 1056 1369 1301 889 
Q 1547 409 2034 409 
Q 2525 409 2770 889 
Q 3016 1369 3016 2328 
Q 3016 3291 2770 3770 
Q 2525 4250 2034 4250 
z
M 2034 4750 
Q 2819 4750 3233 4129 
Q 3647 3509 3647 2328 
Q 3647 1150 3233 529 
Q 2819 -91 2034 -91 
Q 1250 -91 836 529 
Q 422 1150 422 2328 
Q 422 3509 836 4129 
Q 1250 4750 2034 4750 
z
" transform="scale(0.015625)"/>
       </defs>
       <use xlink:href="#DejaVuSans-13"/>
      </g>
     </g>
    </g>
    <g id="xtick_2">
     <g id="line2d_3">
      <path d="M 180.652826 303.264 
L 180.652826 44.928 
" clip-path="url(#p0cd89af68d)" style="fill: none; stroke: #b0b0b0; stroke-opacity: 0.18; stroke-width: 0.8; stroke-linecap: square"/>
     </g>
     <g id="line2d_4">
      <g>
       <use xlink:href="#m0a878667e7" x="180.652826" y="303.264" style="stroke: #000000; stroke-width: 0.8"/>
      </g>
     </g>
     <g id="text_2">
      <!-- 2 -->
      <g transform="translate(177.153451 318.621422) scale(0.11 -0.11)">
       <defs>
        <path id="DejaVuSans-15" d="M 1228 531 
L 3431 531 
L 3431 0 
L 469 0 
L 469 531 
Q 828 903 1448 1529 
Q 2069 2156 2228 2338 
Q 2531 2678 2651 2914 
Q 2772 3150 2772 3378 
Q 2772 3750 2511 3984 
Q 2250 4219 1831 4219 
Q 1534 4219 1204 4116 
Q 875 4013 500 3803 
L 500 4441 
Q 881 4594 1212 4672 
Q 1544 4750 1819 4750 
Q 2544 4750 2975 4387 
Q 3406 4025 3406 3419 
Q 3406 3131 3298 2873 
Q 3191 2616 2906 2266 
Q 2828 2175 2409 1742 
Q 1991 1309 1228 531 
z
" transform="scale(0.015625)"/>
       </defs>
       <use xlink:href="#DejaVuSans-15"/>
      </g>
     </g>
    </g>
    <g id="xtick_3">
     <g id="line2d_5">
      <path d="M 266.265651 303.264 
L 266.265651 44.928 
" clip-path="url(#p0cd89af68d)" style="fill: none; stroke: #b0b0b0; stroke-opacity: 0.18; stroke-width: 0.8; stroke-linecap: square"/>
     </g>
     <g id="line2d_6">
      <g>
       <use xlink:href="#m0a878667e7" x="266.265651" y="303.264" style="stroke: #000000; stroke-width: 0.8"/>
      </g>
     </g>
     <g id="text_3">
      <!-- 4 -->
      <g transform="translate(262.766276 318.621422) scale(0.11 -0.11)">
       <defs>
        <path id="DejaVuSans-17" d="M 2419 4116 
L 825 1625 
L 2419 1625 
L 2419 4116 
z
M 2253 4666 
L 3047 4666 
L 3047 1625 
L 3713 1625 
L 3713 1100 
L 3047 1100 
L 3047 0 
L 2419 0 
L 2419 1100 
L 313 1100 
L 313 1709 
L 2253 4666 
z
" transform="scale(0.015625)"/>
       </defs>
       <use xlink:href="#DejaVuSans-17"/>
      </g>
     </g>
    </g>
    <g id="xtick_4">
     <g id="line2d_7">
      <path d="M 351.878477 303.264 
L 351.878477 44.928 
" clip-path="url(#p0cd89af68d)" style="fill: none; stroke: #b0b0b0; stroke-opacity: 0.18; stroke-width: 0.8; stroke-linecap: square"/>
     </g>
     <g id="line2d_8">
      <g>
       <use xlink:href="#m0a878667e7" x="351.878477" y="303.264" style="stroke: #000000; stroke-width: 0.8"/>
      </g>
     </g>
     <g id="text_4">
      <!-- 6 -->
      <g transform="translate(348.379102 318.621422) scale(0.11 -0.11)">
       <defs>
        <path id="DejaVuSans-19" d="M 2113 2584 
Q 1688 2584 1439 2293 
Q 1191 2003 1191 1497 
Q 1191 994 1439 701 
Q 1688 409 2113 409 
Q 2538 409 2786 701 
Q 3034 994 3034 1497 
Q 3034 2003 2786 2293 
Q 2538 2584 2113 2584 
z
M 3366 4563 
L 3366 3988 
Q 3128 4100 2886 4159 
Q 2644 4219 2406 4219 
Q 1781 4219 1451 3797 
Q 1122 3375 1075 2522 
Q 1259 2794 1537 2939 
Q 1816 3084 2150 3084 
Q 2853 3084 3261 2657 
Q 3669 2231 3669 1497 
Q 3669 778 3244 343 
Q 2819 -91 2113 -91 
Q 1303 -91 875 529 
Q 447 1150 447 2328 
Q 447 3434 972 4092 
Q 1497 4750 2381 4750 
Q 2619 4750 2861 4703 
Q 3103 4656 3366 4563 
z
" transform="scale(0.015625)"/>
       </defs>
       <use xlink:href="#DejaVuSans-19"/>
      </g>
     </g>
    </g>
    <g id="xtick_5">
     <g id="line2d_9">
      <path d="M 437.491303 303.264 
L 437.491303 44.928 
" clip-path="url(#p0cd89af68d)" style="fill: none; stroke: #b0b0b0; stroke-opacity: 0.18; stroke-width: 0.8; stroke-linecap: square"/>
     </g>
     <g id="line2d_10">
      <g>
       <use xlink:href="#m0a878667e7" x="437.491303" y="303.264" style="stroke: #000000; stroke-width: 0.8"/>
      </g>
     </g>
     <g id="text_5">
      <!-- 8 -->
      <g transform="translate(433.991928 318.621422) scale(0.11 -0.11)">
       <defs>
        <path id="DejaVuSans-1b" d="M 2034 2216 
Q 1584 2216 1326 1975 
Q 1069 1734 1069 1313 
Q 1069 891 1326 650 
Q 1584 409 2034 409 
Q 2484 409 2743 651 
Q 3003 894 3003 1313 
Q 3003 1734 2745 1975 
Q 2488 2216 2034 2216 
z
M 1403 2484 
Q 997 2584 770 2862 
Q 544 3141 544 3541 
Q 544 4100 942 4425 
Q 1341 4750 2034 4750 
Q 2731 4750 3128 4425 
Q 3525 4100 3525 3541 
Q 3525 3141 3298 2862 
Q 3072 2584 2669 2484 
Q 3125 2378 3379 2068 
Q 3634 1759 3634 1313 
Q 3634 634 3220 271 
Q 2806 -91 2034 -91 
Q 1263 -91 848 271 
Q 434 634 434 1313 
Q 434 1759 690 2068 
Q 947 2378 1403 2484 
z
M 1172 3481 
Q 1172 3119 1398 2916 
Q 1625 2713 2034 2713 
Q 2441 2713 2670 2916 
Q 2900 3119 2900 3481 
Q 2900 3844 2670 4047 
Q 2441 4250 2034 4250 
Q 1625 4250 1398 4047 
Q 1172 3844 1172 3481 
z
" transform="scale(0.015625)"/>
       </defs>
       <use xlink:href="#DejaVuSans-1b"/>
      </g>
     </g>
    </g>
    <g id="xtick_6">
     <g id="line2d_11">
      <path d="M 523.104128 303.264 
L 523.104128 44.928 
" clip-path="url(#p0cd89af68d)" style="fill: none; stroke: #b0b0b0; stroke-opacity: 0.18; stroke-width: 0.8; stroke-linecap: square"/>
     </g>
     <g id="line2d_12">
      <g>
       <use xlink:href="#m0a878667e7" x="523.104128" y="303.264" style="stroke: #000000; stroke-width: 0.8"/>
      </g>
     </g>
     <g id="text_6">
      <!-- 10 -->
      <g transform="translate(516.105378 318.621422) scale(0.11 -0.11)">
       <defs>
        <path id="DejaVuSans-14" d="M 794 531 
L 1825 531 
L 1825 4091 
L 703 3866 
L 703 4441 
L 1819 4666 
L 2450 4666 
L 2450 531 
L 3481 531 
L 3481 0 
L 794 0 
L 794 531 
z
" transform="scale(0.015625)"/>
       </defs>
       <use xlink:href="#DejaVuSans-14"/>
       <use xlink:href="#DejaVuSans-13" transform="translate(63.625 0)"/>
      </g>
     </g>
    </g>
    <g id="xtick_7">
     <g id="line2d_13">
      <path d="M 608.716954 303.264 
L 608.716954 44.928 
" clip-path="url(#p0cd89af68d)" style="fill: none; stroke: #b0b0b0; stroke-opacity: 0.18; stroke-width: 0.8; stroke-linecap: square"/>
     </g>
     <g id="line2d_14">
      <g>
       <use xlink:href="#m0a878667e7" x="608.716954" y="303.264" style="stroke: #000000; stroke-width: 0.8"/>
      </g>
     </g>
     <g id="text_7">
      <!-- 12 -->
      <g transform="translate(601.718204 318.621422) scale(0.11 -0.11)">
       <use xlink:href="#DejaVuSans-14"/>
       <use xlink:href="#DejaVuSans-15" transform="translate(63.625 0)"/>
      </g>
     </g>
    </g>
    <g id="xtick_8">
     <g id="line2d_15">
      <path d="M 694.32978 303.264 
L 694.32978 44.928 
" clip-path="url(#p0cd89af68d)" style="fill: none; stroke: #b0b0b0; stroke-opacity: 0.18; stroke-width: 0.8; stroke-linecap: square"/>
     </g>
     <g id="line2d_16">
      <g>
       <use xlink:href="#m0a878667e7" x="694.32978" y="303.264" style="stroke: #000000; stroke-width: 0.8"/>
      </g>
     </g>
     <g id="text_8">
      <!-- 14 -->
      <g transform="translate(687.33103 318.621422) scale(0.11 -0.11)">
       <use xlink:href="#DejaVuSans-14"/>
       <use xlink:href="#DejaVuSans-17" transform="translate(63.625 0)"/>
      </g>
     </g>
    </g>
    <g id="text_9">
     <!-- Source video time (s) -->
     <g transform="translate(372.898281 333.622281) scale(0.11 -0.11)">
      <defs>
       <path id="DejaVuSans-36" d="M 3425 4513 
L 3425 3897 
Q 3066 4069 2747 4153 
Q 2428 4238 2131 4238 
Q 1616 4238 1336 4038 
Q 1056 3838 1056 3469 
Q 1056 3159 1242 3001 
Q 1428 2844 1947 2747 
L 2328 2669 
Q 3034 2534 3370 2195 
Q 3706 1856 3706 1288 
Q 3706 609 3251 259 
Q 2797 -91 1919 -91 
Q 1588 -91 1214 -16 
Q 841 59 441 206 
L 441 856 
Q 825 641 1194 531 
Q 1563 422 1919 422 
Q 2459 422 2753 634 
Q 3047 847 3047 1241 
Q 3047 1584 2836 1778 
Q 2625 1972 2144 2069 
L 1759 2144 
Q 1053 2284 737 2584 
Q 422 2884 422 3419 
Q 422 4038 858 4394 
Q 1294 4750 2059 4750 
Q 2388 4750 2728 4690 
Q 3069 4631 3425 4513 
z
" transform="scale(0.015625)"/>
       <path id="DejaVuSans-52" d="M 1959 3097 
Q 1497 3097 1228 2736 
Q 959 2375 959 1747 
Q 959 1119 1226 758 
Q 1494 397 1959 397 
Q 2419 397 2687 759 
Q 2956 1122 2956 1747 
Q 2956 2369 2687 2733 
Q 2419 3097 1959 3097 
z
M 1959 3584 
Q 2709 3584 3137 3096 
Q 3566 2609 3566 1747 
Q 3566 888 3137 398 
Q 2709 -91 1959 -91 
Q 1206 -91 779 398 
Q 353 888 353 1747 
Q 353 2609 779 3096 
Q 1206 3584 1959 3584 
z
" transform="scale(0.015625)"/>
       <path id="DejaVuSans-58" d="M 544 1381 
L 544 3500 
L 1119 3500 
L 1119 1403 
Q 1119 906 1312 657 
Q 1506 409 1894 409 
Q 2359 409 2629 706 
Q 2900 1003 2900 1516 
L 2900 3500 
L 3475 3500 
L 3475 0 
L 2900 0 
L 2900 538 
Q 2691 219 2414 64 
Q 2138 -91 1772 -91 
Q 1169 -91 856 284 
Q 544 659 544 1381 
z
M 1991 3584 
L 1991 3584 
z
" transform="scale(0.015625)"/>
       <path id="DejaVuSans-55" d="M 2631 2963 
Q 2534 3019 2420 3045 
Q 2306 3072 2169 3072 
Q 1681 3072 1420 2755 
Q 1159 2438 1159 1844 
L 1159 0 
L 581 0 
L 581 3500 
L 1159 3500 
L 1159 2956 
Q 1341 3275 1631 3429 
Q 1922 3584 2338 3584 
Q 2397 3584 2469 3576 
Q 2541 3569 2628 3553 
L 2631 2963 
z
" transform="scale(0.015625)"/>
       <path id="DejaVuSans-46" d="M 3122 3366 
L 3122 2828 
Q 2878 2963 2633 3030 
Q 2388 3097 2138 3097 
Q 1578 3097 1268 2742 
Q 959 2388 959 1747 
Q 959 1106 1268 751 
Q 1578 397 2138 397 
Q 2388 397 2633 464 
Q 2878 531 3122 666 
L 3122 134 
Q 2881 22 2623 -34 
Q 2366 -91 2075 -91 
Q 1284 -91 818 406 
Q 353 903 353 1747 
Q 353 2603 823 3093 
Q 1294 3584 2113 3584 
Q 2378 3584 2631 3529 
Q 2884 3475 3122 3366 
z
" transform="scale(0.015625)"/>
       <path id="DejaVuSans-48" d="M 3597 1894 
L 3597 1613 
L 953 1613 
Q 991 1019 1311 708 
Q 1631 397 2203 397 
Q 2534 397 2845 478 
Q 3156 559 3463 722 
L 3463 178 
Q 3153 47 2828 -22 
Q 2503 -91 2169 -91 
Q 1331 -91 842 396 
Q 353 884 353 1716 
Q 353 2575 817 3079 
Q 1281 3584 2069 3584 
Q 2775 3584 3186 3129 
Q 3597 2675 3597 1894 
z
M 3022 2063 
Q 3016 2534 2758 2815 
Q 2500 3097 2075 3097 
Q 1594 3097 1305 2825 
Q 1016 2553 972 2059 
L 3022 2063 
z
" transform="scale(0.015625)"/>
       <path id="DejaVuSans-3" transform="scale(0.015625)"/>
       <path id="DejaVuSans-59" d="M 191 3500 
L 800 3500 
L 1894 563 
L 2988 3500 
L 3597 3500 
L 2284 0 
L 1503 0 
L 191 3500 
z
" transform="scale(0.015625)"/>
       <path id="DejaVuSans-4c" d="M 603 3500 
L 1178 3500 
L 1178 0 
L 603 0 
L 603 3500 
z
M 603 4863 
L 1178 4863 
L 1178 4134 
L 603 4134 
L 603 4863 
z
" transform="scale(0.015625)"/>
       <path id="DejaVuSans-47" d="M 2906 2969 
L 2906 4863 
L 3481 4863 
L 3481 0 
L 2906 0 
L 2906 525 
Q 2725 213 2448 61 
Q 2172 -91 1784 -91 
Q 1150 -91 751 415 
Q 353 922 353 1747 
Q 353 2572 751 3078 
Q 1150 3584 1784 3584 
Q 2172 3584 2448 3432 
Q 2725 3281 2906 2969 
z
M 947 1747 
Q 947 1113 1208 752 
Q 1469 391 1925 391 
Q 2381 391 2643 752 
Q 2906 1113 2906 1747 
Q 2906 2381 2643 2742 
Q 2381 3103 1925 3103 
Q 1469 3103 1208 2742 
Q 947 2381 947 1747 
z
" transform="scale(0.015625)"/>
       <path id="DejaVuSans-57" d="M 1172 4494 
L 1172 3500 
L 2356 3500 
L 2356 3053 
L 1172 3053 
L 1172 1153 
Q 1172 725 1289 603 
Q 1406 481 1766 481 
L 2356 481 
L 2356 0 
L 1766 0 
Q 1100 0 847 248 
Q 594 497 594 1153 
L 594 3053 
L 172 3053 
L 172 3500 
L 594 3500 
L 594 4494 
L 1172 4494 
z
" transform="scale(0.015625)"/>
       <path id="DejaVuSans-50" d="M 3328 2828 
Q 3544 3216 3844 3400 
Q 4144 3584 4550 3584 
Q 5097 3584 5394 3201 
Q 5691 2819 5691 2113 
L 5691 0 
L 5113 0 
L 5113 2094 
Q 5113 2597 4934 2840 
Q 4756 3084 4391 3084 
Q 3944 3084 3684 2787 
Q 3425 2491 3425 1978 
L 3425 0 
L 2847 0 
L 2847 2094 
Q 2847 2600 2669 2842 
Q 2491 3084 2119 3084 
Q 1678 3084 1418 2786 
Q 1159 2488 1159 1978 
L 1159 0 
L 581 0 
L 581 3500 
L 1159 3500 
L 1159 2956 
Q 1356 3278 1631 3431 
Q 1906 3584 2284 3584 
Q 2666 3584 2933 3390 
Q 3200 3197 3328 2828 
z
" transform="scale(0.015625)"/>
       <path id="DejaVuSans-b" d="M 1984 4856 
Q 1566 4138 1362 3434 
Q 1159 2731 1159 2009 
Q 1159 1288 1364 580 
Q 1569 -128 1984 -844 
L 1484 -844 
Q 1016 -109 783 600 
Q 550 1309 550 2009 
Q 550 2706 781 3412 
Q 1013 4119 1484 4856 
L 1984 4856 
z
" transform="scale(0.015625)"/>
       <path id="DejaVuSans-56" d="M 2834 3397 
L 2834 2853 
Q 2591 2978 2328 3040 
Q 2066 3103 1784 3103 
Q 1356 3103 1142 2972 
Q 928 2841 928 2578 
Q 928 2378 1081 2264 
Q 1234 2150 1697 2047 
L 1894 2003 
Q 2506 1872 2764 1633 
Q 3022 1394 3022 966 
Q 3022 478 2636 193 
Q 2250 -91 1575 -91 
Q 1294 -91 989 -36 
Q 684 19 347 128 
L 347 722 
Q 666 556 975 473 
Q 1284 391 1588 391 
Q 1994 391 2212 530 
Q 2431 669 2431 922 
Q 2431 1156 2273 1281 
Q 2116 1406 1581 1522 
L 1381 1569 
Q 847 1681 609 1914 
Q 372 2147 372 2553 
Q 372 3047 722 3315 
Q 1072 3584 1716 3584 
Q 2034 3584 2315 3537 
Q 2597 3491 2834 3397 
z
" transform="scale(0.015625)"/>
       <path id="DejaVuSans-c" d="M 513 4856 
L 1013 4856 
Q 1481 4119 1714 3412 
Q 1947 2706 1947 2009 
Q 1947 1309 1714 600 
Q 1481 -109 1013 -844 
L 513 -844 
Q 928 -128 1133 580 
Q 1338 1288 1338 2009 
Q 1338 2731 1133 3434 
Q 928 4138 513 4856 
z
" transform="scale(0.015625)"/>
      </defs>
      <use xlink:href="#DejaVuSans-36"/>
      <use xlink:href="#DejaVuSans-52" transform="translate(63.484375 0)"/>
      <use xlink:href="#DejaVuSans-58" transform="translate(124.671875 0)"/>
      <use xlink:href="#DejaVuSans-55" transform="translate(188.046875 0)"/>
      <use xlink:href="#DejaVuSans-46" transform="translate(226.953125 0)"/>
      <use xlink:href="#DejaVuSans-48" transform="translate(281.9375 0)"/>
      <use xlink:href="#DejaVuSans-3" transform="translate(343.46875 0)"/>
      <use xlink:href="#DejaVuSans-59" transform="translate(375.25 0)"/>
      <use xlink:href="#DejaVuSans-4c" transform="translate(434.4375 0)"/>
      <use xlink:href="#DejaVuSans-47" transform="translate(462.21875 0)"/>
      <use xlink:href="#DejaVuSans-48" transform="translate(525.703125 0)"/>
      <use xlink:href="#DejaVuSans-52" transform="translate(587.234375 0)"/>
      <use xlink:href="#DejaVuSans-3" transform="translate(648.421875 0)"/>
      <use xlink:href="#DejaVuSans-57" transform="translate(680.203125 0)"/>
      <use xlink:href="#DejaVuSans-4c" transform="translate(719.40625 0)"/>
      <use xlink:href="#DejaVuSans-50" transform="translate(747.1875 0)"/>
      <use xlink:href="#DejaVuSans-48" transform="translate(844.59375 0)"/>
      <use xlink:href="#DejaVuSans-3" transform="translate(906.125 0)"/>
      <use xlink:href="#DejaVuSans-b" transform="translate(937.90625 0)"/>
      <use xlink:href="#DejaVuSans-56" transform="translate(976.921875 0)"/>
      <use xlink:href="#DejaVuSans-c" transform="translate(1029.015625 0)"/>
     </g>
    </g>
   </g>
   <g id="matplotlib.axis_2">
    <g id="ytick_1">
     <g id="line2d_17">
      <path d="M 95.04 303.264 
L 768.24 303.264 
" clip-path="url(#p0cd89af68d)" style="fill: none; stroke: #b0b0b0; stroke-opacity: 0.18; stroke-width: 0.8; stroke-linecap: square"/>
     </g>
     <g id="line2d_18">
      <defs>
       <path id="m8bbbd51931" d="M 0 0 
L -3.5 0 
" style="stroke: #000000; stroke-width: 0.8"/>
      </defs>
      <g>
       <use xlink:href="#m8bbbd51931" x="95.04" y="303.264" style="stroke: #000000; stroke-width: 0.8"/>
      </g>
     </g>
     <g id="text_10">
      <!-- 0.0 -->
      <g transform="translate(70.546562 307.442711) scale(0.11 -0.11)">
       <defs>
        <path id="DejaVuSans-11" d="M 684 794 
L 1344 794 
L 1344 0 
L 684 0 
L 684 794 
z
" transform="scale(0.015625)"/>
       </defs>
       <use xlink:href="#DejaVuSans-13"/>
       <use xlink:href="#DejaVuSans-11" transform="translate(63.625 0)"/>
       <use xlink:href="#DejaVuSans-13" transform="translate(95.40625 0)"/>
      </g>
     </g>
    </g>
    <g id="ytick_2">
     <g id="line2d_19">
      <path d="M 95.04 271.586417 
L 768.24 271.586417 
" clip-path="url(#p0cd89af68d)" style="fill: none; stroke: #b0b0b0; stroke-opacity: 0.18; stroke-width: 0.8; stroke-linecap: square"/>
     </g>
     <g id="line2d_20">
      <g>
       <use xlink:href="#m8bbbd51931" x="95.04" y="271.586417" style="stroke: #000000; stroke-width: 0.8"/>
      </g>
     </g>
     <g id="text_11">
      <!-- 0.5 -->
      <g transform="translate(70.546562 275.765127) scale(0.11 -0.11)">
       <defs>
        <path id="DejaVuSans-18" d="M 691 4666 
L 3169 4666 
L 3169 4134 
L 1269 4134 
L 1269 2991 
Q 1406 3038 1543 3061 
Q 1681 3084 1819 3084 
Q 2600 3084 3056 2656 
Q 3513 2228 3513 1497 
Q 3513 744 3044 326 
Q 2575 -91 1722 -91 
Q 1428 -91 1123 -41 
Q 819 9 494 109 
L 494 744 
Q 775 591 1075 516 
Q 1375 441 1709 441 
Q 2250 441 2565 725 
Q 2881 1009 2881 1497 
Q 2881 1984 2565 2268 
Q 2250 2553 1709 2553 
Q 1456 2553 1204 2497 
Q 953 2441 691 2322 
L 691 4666 
z
" transform="scale(0.015625)"/>
       </defs>
       <use xlink:href="#DejaVuSans-13"/>
       <use xlink:href="#DejaVuSans-11" transform="translate(63.625 0)"/>
       <use xlink:href="#DejaVuSans-18" transform="translate(95.40625 0)"/>
      </g>
     </g>
    </g>
    <g id="ytick_3">
     <g id="line2d_21">
      <path d="M 95.04 239.908833 
L 768.24 239.908833 
" clip-path="url(#p0cd89af68d)" style="fill: none; stroke: #b0b0b0; stroke-opacity: 0.18; stroke-width: 0.8; stroke-linecap: square"/>
     </g>
     <g id="line2d_22">
      <g>
       <use xlink:href="#m8bbbd51931" x="95.04" y="239.908833" style="stroke: #000000; stroke-width: 0.8"/>
      </g>
     </g>
     <g id="text_12">
      <!-- 1.0 -->
      <g transform="translate(70.546562 244.087544) scale(0.11 -0.11)">
       <use xlink:href="#DejaVuSans-14"/>
       <use xlink:href="#DejaVuSans-11" transform="translate(63.625 0)"/>
       <use xlink:href="#DejaVuSans-13" transform="translate(95.40625 0)"/>
      </g>
     </g>
    </g>
    <g id="ytick_4">
     <g id="line2d_23">
      <path d="M 95.04 208.23125 
L 768.24 208.23125 
" clip-path="url(#p0cd89af68d)" style="fill: none; stroke: #b0b0b0; stroke-opacity: 0.18; stroke-width: 0.8; stroke-linecap: square"/>
     </g>
     <g id="line2d_24">
      <g>
       <use xlink:href="#m8bbbd51931" x="95.04" y="208.23125" style="stroke: #000000; stroke-width: 0.8"/>
      </g>
     </g>
     <g id="text_13">
      <!-- 1.5 -->
      <g transform="translate(70.546562 212.409961) scale(0.11 -0.11)">
       <use xlink:href="#DejaVuSans-14"/>
       <use xlink:href="#DejaVuSans-11" transform="translate(63.625 0)"/>
       <use xlink:href="#DejaVuSans-18" transform="translate(95.40625 0)"/>
      </g>
     </g>
    </g>
    <g id="ytick_5">
     <g id="line2d_25">
      <path d="M 95.04 176.553666 
L 768.24 176.553666 
" clip-path="url(#p0cd89af68d)" style="fill: none; stroke: #b0b0b0; stroke-opacity: 0.18; stroke-width: 0.8; stroke-linecap: square"/>
     </g>
     <g id="line2d_26">
      <g>
       <use xlink:href="#m8bbbd51931" x="95.04" y="176.553666" style="stroke: #000000; stroke-width: 0.8"/>
      </g>
     </g>
     <g id="text_14">
      <!-- 2.0 -->
      <g transform="translate(70.546562 180.732377) scale(0.11 -0.11)">
       <use xlink:href="#DejaVuSans-15"/>
       <use xlink:href="#DejaVuSans-11" transform="translate(63.625 0)"/>
       <use xlink:href="#DejaVuSans-13" transform="translate(95.40625 0)"/>
      </g>
     </g>
    </g>
    <g id="ytick_6">
     <g id="line2d_27">
      <path d="M 95.04 144.876083 
L 768.24 144.876083 
" clip-path="url(#p0cd89af68d)" style="fill: none; stroke: #b0b0b0; stroke-opacity: 0.18; stroke-width: 0.8; stroke-linecap: square"/>
     </g>
     <g id="line2d_28">
      <g>
       <use xlink:href="#m8bbbd51931" x="95.04" y="144.876083" style="stroke: #000000; stroke-width: 0.8"/>
      </g>
     </g>
     <g id="text_15">
      <!-- 2.5 -->
      <g transform="translate(70.546562 149.054794) scale(0.11 -0.11)">
       <use xlink:href="#DejaVuSans-15"/>
       <use xlink:href="#DejaVuSans-11" transform="translate(63.625 0)"/>
       <use xlink:href="#DejaVuSans-18" transform="translate(95.40625 0)"/>
      </g>
     </g>
    </g>
    <g id="ytick_7">
     <g id="line2d_29">
      <path d="M 95.04 113.198499 
L 768.24 113.198499 
" clip-path="url(#p0cd89af68d)" style="fill: none; stroke: #b0b0b0; stroke-opacity: 0.18; stroke-width: 0.8; stroke-linecap: square"/>
     </g>
     <g id="line2d_30">
      <g>
       <use xlink:href="#m8bbbd51931" x="95.04" y="113.198499" style="stroke: #000000; stroke-width: 0.8"/>
      </g>
     </g>
     <g id="text_16">
      <!-- 3.0 -->
      <g transform="translate(70.546562 117.37721) scale(0.11 -0.11)">
       <defs>
        <path id="DejaVuSans-16" d="M 2597 2516 
Q 3050 2419 3304 2112 
Q 3559 1806 3559 1356 
Q 3559 666 3084 287 
Q 2609 -91 1734 -91 
Q 1441 -91 1130 -33 
Q 819 25 488 141 
L 488 750 
Q 750 597 1062 519 
Q 1375 441 1716 441 
Q 2309 441 2620 675 
Q 2931 909 2931 1356 
Q 2931 1769 2642 2001 
Q 2353 2234 1838 2234 
L 1294 2234 
L 1294 2753 
L 1863 2753 
Q 2328 2753 2575 2939 
Q 2822 3125 2822 3475 
Q 2822 3834 2567 4026 
Q 2313 4219 1838 4219 
Q 1578 4219 1281 4162 
Q 984 4106 628 3988 
L 628 4550 
Q 988 4650 1302 4700 
Q 1616 4750 1894 4750 
Q 2613 4750 3031 4423 
Q 3450 4097 3450 3541 
Q 3450 3153 3228 2886 
Q 3006 2619 2597 2516 
z
" transform="scale(0.015625)"/>
       </defs>
       <use xlink:href="#DejaVuSans-16"/>
       <use xlink:href="#DejaVuSans-11" transform="translate(63.625 0)"/>
       <use xlink:href="#DejaVuSans-13" transform="translate(95.40625 0)"/>
      </g>
     </g>
    </g>
    <g id="ytick_8">
     <g id="line2d_31">
      <path d="M 95.04 81.520916 
L 768.24 81.520916 
" clip-path="url(#p0cd89af68d)" style="fill: none; stroke: #b0b0b0; stroke-opacity: 0.18; stroke-width: 0.8; stroke-linecap: square"/>
     </g>
     <g id="line2d_32">
      <g>
       <use xlink:href="#m8bbbd51931" x="95.04" y="81.520916" style="stroke: #000000; stroke-width: 0.8"/>
      </g>
     </g>
     <g id="text_17">
      <!-- 3.5 -->
      <g transform="translate(70.546562 85.699627) scale(0.11 -0.11)">
       <use xlink:href="#DejaVuSans-16"/>
       <use xlink:href="#DejaVuSans-11" transform="translate(63.625 0)"/>
       <use xlink:href="#DejaVuSans-18" transform="translate(95.40625 0)"/>
      </g>
     </g>
    </g>
    <g id="ytick_9">
     <g id="line2d_33">
      <path d="M 95.04 49.843332 
L 768.24 49.843332 
" clip-path="url(#p0cd89af68d)" style="fill: none; stroke: #b0b0b0; stroke-opacity: 0.18; stroke-width: 0.8; stroke-linecap: square"/>
     </g>
     <g id="line2d_34">
      <g>
       <use xlink:href="#m8bbbd51931" x="95.04" y="49.843332" style="stroke: #000000; stroke-width: 0.8"/>
      </g>
     </g>
     <g id="text_18">
      <!-- 4.0 -->
      <g transform="translate(70.546562 54.022043) scale(0.11 -0.11)">
       <use xlink:href="#DejaVuSans-17"/>
       <use xlink:href="#DejaVuSans-11" transform="translate(63.625 0)"/>
       <use xlink:href="#DejaVuSans-13" transform="translate(95.40625 0)"/>
      </g>
     </g>
    </g>
    <g id="text_19">
     <!-- RMS error (working-image pixels) -->
     <g transform="translate(63.903984 265.818813) rotate(-90) scale(0.11 -0.11)">
      <defs>
       <path id="DejaVuSans-35" d="M 2841 2188 
Q 3044 2119 3236 1894 
Q 3428 1669 3622 1275 
L 4263 0 
L 3584 0 
L 2988 1197 
Q 2756 1666 2539 1819 
Q 2322 1972 1947 1972 
L 1259 1972 
L 1259 0 
L 628 0 
L 628 4666 
L 2053 4666 
Q 2853 4666 3247 4331 
Q 3641 3997 3641 3322 
Q 3641 2881 3436 2590 
Q 3231 2300 2841 2188 
z
M 1259 4147 
L 1259 2491 
L 2053 2491 
Q 2509 2491 2742 2702 
Q 2975 2913 2975 3322 
Q 2975 3731 2742 3939 
Q 2509 4147 2053 4147 
L 1259 4147 
z
" transform="scale(0.015625)"/>
       <path id="DejaVuSans-30" d="M 628 4666 
L 1569 4666 
L 2759 1491 
L 3956 4666 
L 4897 4666 
L 4897 0 
L 4281 0 
L 4281 4097 
L 3078 897 
L 2444 897 
L 1241 4097 
L 1241 0 
L 628 0 
L 628 4666 
z
" transform="scale(0.015625)"/>
       <path id="DejaVuSans-5a" d="M 269 3500 
L 844 3500 
L 1563 769 
L 2278 3500 
L 2956 3500 
L 3675 769 
L 4391 3500 
L 4966 3500 
L 4050 0 
L 3372 0 
L 2619 2869 
L 1863 0 
L 1184 0 
L 269 3500 
z
" transform="scale(0.015625)"/>
       <path id="DejaVuSans-4e" d="M 581 4863 
L 1159 4863 
L 1159 1991 
L 2875 3500 
L 3609 3500 
L 1753 1863 
L 3688 0 
L 2938 0 
L 1159 1709 
L 1159 0 
L 581 0 
L 581 4863 
z
" transform="scale(0.015625)"/>
       <path id="DejaVuSans-51" d="M 3513 2113 
L 3513 0 
L 2938 0 
L 2938 2094 
Q 2938 2591 2744 2837 
Q 2550 3084 2163 3084 
Q 1697 3084 1428 2787 
Q 1159 2491 1159 1978 
L 1159 0 
L 581 0 
L 581 3500 
L 1159 3500 
L 1159 2956 
Q 1366 3272 1645 3428 
Q 1925 3584 2291 3584 
Q 2894 3584 3203 3211 
Q 3513 2838 3513 2113 
z
" transform="scale(0.015625)"/>
       <path id="DejaVuSans-4a" d="M 2906 1791 
Q 2906 2416 2648 2759 
Q 2391 3103 1925 3103 
Q 1463 3103 1205 2759 
Q 947 2416 947 1791 
Q 947 1169 1205 825 
Q 1463 481 1925 481 
Q 2391 481 2648 825 
Q 2906 1169 2906 1791 
z
M 3481 434 
Q 3481 -459 3084 -895 
Q 2688 -1331 1869 -1331 
Q 1566 -1331 1297 -1286 
Q 1028 -1241 775 -1147 
L 775 -588 
Q 1028 -725 1275 -790 
Q 1522 -856 1778 -856 
Q 2344 -856 2625 -561 
Q 2906 -266 2906 331 
L 2906 616 
Q 2728 306 2450 153 
Q 2172 0 1784 0 
Q 1141 0 747 490 
Q 353 981 353 1791 
Q 353 2603 747 3093 
Q 1141 3584 1784 3584 
Q 2172 3584 2450 3431 
Q 2728 3278 2906 2969 
L 2906 3500 
L 3481 3500 
L 3481 434 
z
" transform="scale(0.015625)"/>
       <path id="DejaVuSans-10" d="M 313 2009 
L 1997 2009 
L 1997 1497 
L 313 1497 
L 313 2009 
z
" transform="scale(0.015625)"/>
       <path id="DejaVuSans-44" d="M 2194 1759 
Q 1497 1759 1228 1600 
Q 959 1441 959 1056 
Q 959 750 1161 570 
Q 1363 391 1709 391 
Q 2188 391 2477 730 
Q 2766 1069 2766 1631 
L 2766 1759 
L 2194 1759 
z
M 3341 1997 
L 3341 0 
L 2766 0 
L 2766 531 
Q 2569 213 2275 61 
Q 1981 -91 1556 -91 
Q 1019 -91 701 211 
Q 384 513 384 1019 
Q 384 1609 779 1909 
Q 1175 2209 1959 2209 
L 2766 2209 
L 2766 2266 
Q 2766 2663 2505 2880 
Q 2244 3097 1772 3097 
Q 1472 3097 1187 3025 
Q 903 2953 641 2809 
L 641 3341 
Q 956 3463 1253 3523 
Q 1550 3584 1831 3584 
Q 2591 3584 2966 3190 
Q 3341 2797 3341 1997 
z
" transform="scale(0.015625)"/>
       <path id="DejaVuSans-53" d="M 1159 525 
L 1159 -1331 
L 581 -1331 
L 581 3500 
L 1159 3500 
L 1159 2969 
Q 1341 3281 1617 3432 
Q 1894 3584 2278 3584 
Q 2916 3584 3314 3078 
Q 3713 2572 3713 1747 
Q 3713 922 3314 415 
Q 2916 -91 2278 -91 
Q 1894 -91 1617 61 
Q 1341 213 1159 525 
z
M 3116 1747 
Q 3116 2381 2855 2742 
Q 2594 3103 2138 3103 
Q 1681 3103 1420 2742 
Q 1159 2381 1159 1747 
Q 1159 1113 1420 752 
Q 1681 391 2138 391 
Q 2594 391 2855 752 
Q 3116 1113 3116 1747 
z
" transform="scale(0.015625)"/>
       <path id="DejaVuSans-5b" d="M 3513 3500 
L 2247 1797 
L 3578 0 
L 2900 0 
L 1881 1375 
L 863 0 
L 184 0 
L 1544 1831 
L 300 3500 
L 978 3500 
L 1906 2253 
L 2834 3500 
L 3513 3500 
z
" transform="scale(0.015625)"/>
       <path id="DejaVuSans-4f" d="M 603 4863 
L 1178 4863 
L 1178 0 
L 603 0 
L 603 4863 
z
" transform="scale(0.015625)"/>
      </defs>
      <use xlink:href="#DejaVuSans-35"/>
      <use xlink:href="#DejaVuSans-30" transform="translate(69.484375 0)"/>
      <use xlink:href="#DejaVuSans-36" transform="translate(155.765625 0)"/>
      <use xlink:href="#DejaVuSans-3" transform="translate(219.25 0)"/>
      <use xlink:href="#DejaVuSans-48" transform="translate(251.03125 0)"/>
      <use xlink:href="#DejaVuSans-55" transform="translate(312.5625 0)"/>
      <use xlink:href="#DejaVuSans-55" transform="translate(351.921875 0)"/>
      <use xlink:href="#DejaVuSans-52" transform="translate(390.828125 0)"/>
      <use xlink:href="#DejaVuSans-55" transform="translate(452.015625 0)"/>
      <use xlink:href="#DejaVuSans-3" transform="translate(493.125 0)"/>
      <use xlink:href="#DejaVuSans-b" transform="translate(524.90625 0)"/>
      <use xlink:href="#DejaVuSans-5a" transform="translate(563.921875 0)"/>
      <use xlink:href="#DejaVuSans-52" transform="translate(645.703125 0)"/>
      <use xlink:href="#DejaVuSans-55" transform="translate(706.890625 0)"/>
      <use xlink:href="#DejaVuSans-4e" transform="translate(748 0)"/>
      <use xlink:href="#DejaVuSans-4c" transform="translate(805.90625 0)"/>
      <use xlink:href="#DejaVuSans-51" transform="translate(833.6875 0)"/>
      <use xlink:href="#DejaVuSans-4a" transform="translate(897.0625 0)"/>
      <use xlink:href="#DejaVuSans-10" transform="translate(960.546875 0)"/>
      <use xlink:href="#DejaVuSans-4c" transform="translate(996.625 0)"/>
      <use xlink:href="#DejaVuSans-50" transform="translate(1024.40625 0)"/>
      <use xlink:href="#DejaVuSans-44" transform="translate(1121.8125 0)"/>
      <use xlink:href="#DejaVuSans-4a" transform="translate(1183.09375 0)"/>
      <use xlink:href="#DejaVuSans-48" transform="translate(1246.578125 0)"/>
      <use xlink:href="#DejaVuSans-3" transform="translate(1308.109375 0)"/>
      <use xlink:href="#DejaVuSans-53" transform="translate(1339.890625 0)"/>
      <use xlink:href="#DejaVuSans-4c" transform="translate(1403.375 0)"/>
      <use xlink:href="#DejaVuSans-5b" transform="translate(1431.15625 0)"/>
      <use xlink:href="#DejaVuSans-48" transform="translate(1487.265625 0)"/>
      <use xlink:href="#DejaVuSans-4f" transform="translate(1548.796875 0)"/>
      <use xlink:href="#DejaVuSans-56" transform="translate(1576.578125 0)"/>
      <use xlink:href="#DejaVuSans-c" transform="translate(1628.671875 0)"/>
     </g>
    </g>
   </g>
   <g id="line2d_35">
    <path d="M 105.023898 275.108566 
L 106.450169 274.676149 
L 109.302712 275.205623 
L 110.728983 274.688216 
M 113.581525 277.702227 
L 115.007797 274.907152 
L 116.434068 274.982771 
L 117.860339 275.946969 
L 119.28661 276.033454 
L 120.712881 288.084674 
L 122.139153 276.98721 
L 123.565424 276.565361 
L 124.991695 286.364077 
L 126.417966 272.678117 
M 129.270508 283.996737 
L 130.69678 275.122215 
L 132.123051 273.276974 
L 133.549322 273.733254 
L 134.975593 282.041686 
L 136.401864 274.770651 
L 137.828136 255.505309 
L 139.254407 256.5222 
L 140.680678 258.220288 
L 142.106949 208.491578 
M 146.385763 217.909586 
L 147.812034 213.404932 
L 149.238305 214.890803 
L 150.664576 214.918178 
L 152.090847 215.205207 
L 153.517119 220.852101 
L 154.94339 220.351519 
L 156.369661 220.524954 
M 159.222203 226.983431 
L 160.648475 227.362245 
L 163.501017 229.332019 
L 164.927288 232.207967 
L 166.353559 233.58999 
L 167.779831 239.232198 
L 169.206102 240.390124 
L 170.632373 237.688214 
L 172.058644 234.207572 
M 174.911186 233.374285 
L 176.337458 233.623022 
L 177.763729 235.318958 
L 179.19 234.130271 
L 180.616271 232.746359 
L 182.042542 233.307922 
L 183.468814 234.402217 
L 184.895085 234.089293 
L 186.321356 220.664141 
L 187.747627 221.838392 
M 194.878983 252.572836 
L 196.305254 285.451435 
L 197.731525 285.828986 
L 199.157797 289.600428 
L 200.584068 288.543872 
L 202.010339 290.125338 
M 204.862881 281.7086 
L 206.289153 278.118347 
L 207.715424 275.720341 
L 209.141695 271.843199 
L 210.567966 270.427062 
L 211.994237 289.751049 
L 213.420508 289.620989 
L 214.84678 290.22493 
L 216.273051 292.186221 
L 217.699322 293.893421 
M 221.978136 285.759552 
L 223.404407 288.509243 
L 224.830678 288.200722 
L 226.256949 288.03575 
L 227.68322 287.596748 
L 229.109492 286.984236 
L 230.535763 286.791863 
L 231.962034 280.229856 
M 234.814576 282.013154 
L 236.240847 285.425808 
L 237.667119 283.174944 
L 239.09339 280.651713 
L 240.519661 284.667617 
L 241.945932 284.498089 
L 243.372203 279.511731 
M 246.224746 282.898143 
L 247.651017 280.796052 
L 249.077288 282.670939 
L 250.503559 283.741136 
L 251.929831 285.839247 
L 253.356102 283.542175 
L 254.782373 288.415225 
L 256.208644 284.619961 
L 257.634915 283.564303 
L 259.061186 281.930112 
M 263.34 279.912566 
L 264.766271 281.902018 
L 266.192542 278.538339 
L 267.618814 270.52754 
L 269.045085 278.569737 
L 271.897627 278.607661 
L 273.323898 277.305541 
L 274.750169 278.136703 
L 276.176441 217.936263 
M 283.307797 216.987848 
L 284.734068 217.125806 
L 286.160339 217.752585 
L 287.58661 218.985089 
L 290.439153 220.994136 
M 293.291695 220.074842 
L 294.717966 222.400428 
L 296.144237 221.857437 
L 297.570508 223.154289 
L 298.99678 230.760682 
L 300.423051 230.767542 
L 301.849322 234.199356 
L 303.275593 234.714397 
L 306.128136 233.027333 
M 311.83322 237.548283 
L 313.259492 237.400664 
L 314.685763 237.532162 
L 316.112034 237.896003 
L 317.538305 238.936549 
L 320.390847 241.742191 
L 321.817119 292.714081 
M 324.669661 292.897154 
L 326.095932 292.325181 
L 327.522203 293.217809 
L 328.948475 295.571107 
L 330.374746 295.758608 
L 331.801017 292.557451 
L 333.227288 292.753311 
L 334.653559 291.626169 
L 336.079831 290.211571 
L 337.506102 288.400526 
L 338.932373 285.622342 
L 340.358644 275.870766 
L 341.784915 275.714369 
L 343.211186 272.258362 
L 344.637458 271.859103 
L 346.063729 272.835322 
M 348.916271 268.259906 
L 350.342542 266.546632 
L 351.768814 264.628241 
L 353.195085 262.920813 
L 354.621356 259.878834 
M 358.900169 199.127835 
L 360.326441 127.602877 
L 361.752712 207.078997 
L 363.178983 255.728354 
L 364.605254 241.532953 
L 366.031525 268.457248 
M 368.884068 216.683794 
L 371.73661 141.97358 
L 373.162881 118.738286 
M 414.524746 250.015808 
L 415.951017 255.258884 
L 417.377288 257.072215 
L 418.803559 258.326954 
L 420.229831 265.984167 
M 423.082373 268.728883 
L 424.508644 259.128846 
L 425.934915 270.334694 
L 427.361186 271.722929 
L 428.787458 268.744473 
L 430.213729 270.049753 
L 431.64 270.367763 
L 433.066271 267.491317 
L 434.492542 267.727273 
L 435.918814 268.416631 
M 438.771356 253.647598 
L 440.197627 267.675542 
L 443.050169 260.286046 
L 444.476441 262.925971 
L 445.902712 255.861415 
L 447.328983 253.752632 
L 448.755254 256.856244 
L 450.181525 248.364188 
L 451.607797 249.75277 
M 454.460339 244.105867 
L 455.88661 246.892618 
L 457.312881 246.352618 
L 458.739153 245.477192 
L 460.165424 245.185501 
L 463.017966 248.384143 
L 464.444237 249.074448 
L 465.870508 247.826498 
L 467.29678 248.548624 
M 495.822203 206.06413 
L 497.248475 230.69573 
L 498.674746 220.881575 
L 500.101017 212.033989 
L 501.527288 217.149643 
L 504.379831 204.894844 
L 505.806102 206.839901 
L 507.232373 209.490724 
M 517.216271 249.526129 
L 518.642542 249.169153 
L 520.068814 241.947823 
L 521.495085 242.913688 
L 522.921356 255.430001 
L 524.347627 257.269675 
L 525.773898 260.042588 
M 528.626441 262.246943 
L 530.052712 265.641654 
L 531.478983 267.037516 
L 532.905254 268.623247 
L 534.331525 295.550792 
L 535.757797 269.773526 
L 537.184068 272.261304 
L 538.610339 299.670609 
L 540.03661 291.595108 
L 541.462881 265.79964 
M 545.741695 259.72209 
L 547.167966 261.110543 
L 548.594237 257.999916 
L 550.020508 255.205999 
M 585.677288 286.93417 
L 587.103559 289.867513 
L 588.529831 290.169534 
L 589.956102 289.612871 
L 591.382373 294.856519 
L 592.808644 292.549553 
L 594.234915 292.903286 
L 595.661186 293.406618 
M 598.513729 295.681009 
L 599.94 298.480892 
L 601.366271 299.206501 
L 602.792542 299.384088 
L 604.218814 293.578413 
L 605.645085 291.613092 
L 607.071356 293.095747 
L 608.497627 289.34291 
L 609.923898 287.869307 
L 611.350169 289.394121 
M 614.202712 274.703211 
L 615.628983 279.834511 
L 618.481525 265.786721 
L 619.907797 269.068478 
L 621.334068 265.036881 
L 622.760339 249.947007 
L 624.18661 267.780512 
L 625.612881 247.587937 
L 627.039153 249.181744 
M 629.891695 248.913247 
L 631.317966 248.688998 
L 632.744237 226.833035 
M 635.59678 221.595783 
L 637.023051 222.81708 
L 638.449322 222.595469 
L 639.875593 222.892562 
L 641.301864 223.793927 
L 642.728136 221.209929 
L 644.154407 223.002059 
M 647.006949 221.955061 
L 648.43322 223.698992 
L 649.859492 222.632318 
L 651.285763 223.13403 
L 652.712034 228.125762 
L 654.138305 221.606849 
L 655.564576 227.764519 
L 656.990847 230.296333 
L 658.417119 225.733807 
M 661.269661 234.145197 
L 662.695932 231.880555 
L 664.122203 231.880252 
L 665.548475 233.620593 
L 666.974746 231.803558 
L 668.401017 233.925383 
L 669.827288 233.518286 
L 671.253559 232.578702 
L 672.679831 235.203436 
L 674.106102 268.022457 
M 678.384915 272.016115 
L 679.811186 274.837036 
L 681.237458 274.737692 
L 682.663729 271.758317 
L 684.09 271.946242 
L 685.516271 282.711805 
L 686.942542 285.476146 
L 688.368814 283.423856 
M 691.221356 281.601168 
L 692.647627 284.200523 
L 694.073898 275.886199 
L 695.500169 280.311006 
L 696.926441 280.818545 
L 698.352712 280.033281 
L 699.778983 272.563266 
L 701.205254 279.652088 
L 702.631525 278.115605 
M 706.910339 284.908501 
L 708.33661 281.899372 
L 709.762881 268.376838 
L 711.189153 275.139805 
L 712.615424 277.874513 
L 714.041695 260.764186 
L 715.467966 263.149457 
L 716.894237 255.677774 
L 718.320508 218.066357 
L 719.74678 217.868028 
L 721.173051 218.187366 
L 722.599322 220.606115 
L 724.025593 220.56899 
L 725.451864 221.258831 
L 726.878136 223.560414 
L 728.304407 220.011004 
M 731.156949 223.850097 
L 732.58322 234.660357 
L 734.009492 235.850442 
L 735.435763 235.158916 
L 736.862034 232.13206 
L 738.288305 225.033994 
L 739.714576 220.805461 
L 741.140847 210.929338 
L 742.567119 221.974396 
L 743.99339 209.828386 
M 746.845932 214.482366 
L 748.272203 222.26487 
L 749.698475 221.842929 
L 751.124746 222.43632 
L 752.551017 221.65747 
L 753.977288 220.379434 
L 755.403559 219.483086 
L 756.829831 219.920362 
L 759.682373 219.587855 
M 766.813729 263.278914 
L 768.24 264.090408 
L 768.24 264.090408 
" clip-path="url(#p0cd89af68d)" style="fill: none; stroke: #2457a7; stroke-width: 1.3; stroke-linecap: square"/>
   </g>
   <g id="line2d_36">
    <path d="M 95.04 197.672055 
L 768.24 197.672055 
" clip-path="url(#p0cd89af68d)" style="fill: none; stroke-dasharray: 5.18,2.24; stroke-dashoffset: 0; stroke: #ba3434; stroke-width: 1.4"/>
   </g>
   <g id="patch_3">
    <path d="M 95.04 303.264 
L 95.04 44.928 
" style="fill: none; stroke: #000000; stroke-width: 0.8; stroke-linejoin: miter; stroke-linecap: square"/>
   </g>
   <g id="patch_4">
    <path d="M 95.04 303.264 
L 768.24 303.264 
" style="fill: none; stroke: #000000; stroke-width: 0.8; stroke-linejoin: miter; stroke-linecap: square"/>
   </g>
   <g id="PathCollection_1">
    <defs>
     <path id="m731984c059" d="M 0 2.645751 
C 0.701661 2.645751 1.374679 2.366978 1.870829 1.870829 
C 2.366978 1.374679 2.645751 0.701661 2.645751 0 
C 2.645751 -0.701661 2.366978 -1.374679 1.870829 -1.870829 
C 1.374679 -2.366978 0.701661 -2.645751 0 -2.645751 
C -0.701661 -2.645751 -1.374679 -2.366978 -1.870829 -1.870829 
C -2.366978 -1.374679 -2.645751 -0.701661 -2.645751 0 
C -2.645751 0.701661 -2.366978 1.374679 -1.870829 1.870829 
C -1.374679 2.366978 -0.701661 2.645751 0 2.645751 
z
" style="stroke: #c15f12"/>
    </defs>
    <g clip-path="url(#p0cd89af68d)">
     <use xlink:href="#m731984c059" x="360.326441" y="127.602877" style="fill: #c15f12; stroke: #c15f12"/>
     <use xlink:href="#m731984c059" x="370.310339" y="180.476058" style="fill: #c15f12; stroke: #c15f12"/>
     <use xlink:href="#m731984c059" x="371.73661" y="141.97358" style="fill: #c15f12; stroke: #c15f12"/>
     <use xlink:href="#m731984c059" x="373.162881" y="118.738286" style="fill: #c15f12; stroke: #c15f12"/>
    </g>
   </g>
   <g id="text_20">
    <!-- Pose reprojection error -->
    <g transform="translate(333.125156 38.928) scale(0.15 -0.15)">
     <defs>
      <path id="DejaVuSans-Bold-33" d="M 588 4666 
L 2584 4666 
Q 3475 4666 3951 4270 
Q 4428 3875 4428 3144 
Q 4428 2409 3951 2014 
Q 3475 1619 2584 1619 
L 1791 1619 
L 1791 0 
L 588 0 
L 588 4666 
z
M 1791 3794 
L 1791 2491 
L 2456 2491 
Q 2806 2491 2997 2661 
Q 3188 2831 3188 3144 
Q 3188 3456 2997 3625 
Q 2806 3794 2456 3794 
L 1791 3794 
z
" transform="scale(0.015625)"/>
      <path id="DejaVuSans-Bold-52" d="M 2203 2784 
Q 1831 2784 1636 2517 
Q 1441 2250 1441 1747 
Q 1441 1244 1636 976 
Q 1831 709 2203 709 
Q 2569 709 2762 976 
Q 2956 1244 2956 1747 
Q 2956 2250 2762 2517 
Q 2569 2784 2203 2784 
z
M 2203 3584 
Q 3106 3584 3614 3096 
Q 4122 2609 4122 1747 
Q 4122 884 3614 396 
Q 3106 -91 2203 -91 
Q 1297 -91 786 396 
Q 275 884 275 1747 
Q 275 2609 786 3096 
Q 1297 3584 2203 3584 
z
" transform="scale(0.015625)"/>
      <path id="DejaVuSans-Bold-56" d="M 3272 3391 
L 3272 2541 
Q 2913 2691 2578 2766 
Q 2244 2841 1947 2841 
Q 1628 2841 1473 2761 
Q 1319 2681 1319 2516 
Q 1319 2381 1436 2309 
Q 1553 2238 1856 2203 
L 2053 2175 
Q 2913 2066 3209 1816 
Q 3506 1566 3506 1031 
Q 3506 472 3093 190 
Q 2681 -91 1863 -91 
Q 1516 -91 1145 -36 
Q 775 19 384 128 
L 384 978 
Q 719 816 1070 734 
Q 1422 653 1784 653 
Q 2113 653 2278 743 
Q 2444 834 2444 1013 
Q 2444 1163 2330 1236 
Q 2216 1309 1875 1350 
L 1678 1375 
Q 931 1469 631 1722 
Q 331 1975 331 2491 
Q 331 3047 712 3315 
Q 1094 3584 1881 3584 
Q 2191 3584 2531 3537 
Q 2872 3491 3272 3391 
z
" transform="scale(0.015625)"/>
      <path id="DejaVuSans-Bold-48" d="M 4031 1759 
L 4031 1441 
L 1416 1441 
Q 1456 1047 1700 850 
Q 1944 653 2381 653 
Q 2734 653 3104 758 
Q 3475 863 3866 1075 
L 3866 213 
Q 3469 63 3072 -14 
Q 2675 -91 2278 -91 
Q 1328 -91 801 392 
Q 275 875 275 1747 
Q 275 2603 792 3093 
Q 1309 3584 2216 3584 
Q 3041 3584 3536 3087 
Q 4031 2591 4031 1759 
z
M 2881 2131 
Q 2881 2450 2695 2645 
Q 2509 2841 2209 2841 
Q 1884 2841 1681 2658 
Q 1478 2475 1428 2131 
L 2881 2131 
z
" transform="scale(0.015625)"/>
      <path id="DejaVuSans-Bold-3" transform="scale(0.015625)"/>
      <path id="DejaVuSans-Bold-55" d="M 3138 2547 
Q 2991 2616 2845 2648 
Q 2700 2681 2553 2681 
Q 2122 2681 1889 2404 
Q 1656 2128 1656 1613 
L 1656 0 
L 538 0 
L 538 3500 
L 1656 3500 
L 1656 2925 
Q 1872 3269 2151 3426 
Q 2431 3584 2822 3584 
Q 2878 3584 2943 3579 
Q 3009 3575 3134 3559 
L 3138 2547 
z
" transform="scale(0.015625)"/>
      <path id="DejaVuSans-Bold-53" d="M 1656 506 
L 1656 -1331 
L 538 -1331 
L 538 3500 
L 1656 3500 
L 1656 2988 
Q 1888 3294 2169 3439 
Q 2450 3584 2816 3584 
Q 3463 3584 3878 3070 
Q 4294 2556 4294 1747 
Q 4294 938 3878 423 
Q 3463 -91 2816 -91 
Q 2450 -91 2169 54 
Q 1888 200 1656 506 
z
M 2400 2772 
Q 2041 2772 1848 2508 
Q 1656 2244 1656 1747 
Q 1656 1250 1848 986 
Q 2041 722 2400 722 
Q 2759 722 2948 984 
Q 3138 1247 3138 1747 
Q 3138 2247 2948 2509 
Q 2759 2772 2400 2772 
z
" transform="scale(0.015625)"/>
      <path id="DejaVuSans-Bold-4d" d="M 538 3500 
L 1656 3500 
L 1656 63 
Q 1656 -641 1318 -1011 
Q 981 -1381 341 -1381 
L -213 -1381 
L -213 -647 
L -19 -647 
Q 300 -647 419 -503 
Q 538 -359 538 63 
L 538 3500 
z
M 538 4863 
L 1656 4863 
L 1656 3950 
L 538 3950 
L 538 4863 
z
" transform="scale(0.015625)"/>
      <path id="DejaVuSans-Bold-46" d="M 3366 3391 
L 3366 2478 
Q 3138 2634 2908 2709 
Q 2678 2784 2431 2784 
Q 1963 2784 1702 2511 
Q 1441 2238 1441 1747 
Q 1441 1256 1702 982 
Q 1963 709 2431 709 
Q 2694 709 2930 787 
Q 3166 866 3366 1019 
L 3366 103 
Q 3103 6 2833 -42 
Q 2563 -91 2291 -91 
Q 1344 -91 809 395 
Q 275 881 275 1747 
Q 275 2613 809 3098 
Q 1344 3584 2291 3584 
Q 2566 3584 2833 3536 
Q 3100 3488 3366 3391 
z
" transform="scale(0.015625)"/>
      <path id="DejaVuSans-Bold-57" d="M 1759 4494 
L 1759 3500 
L 2913 3500 
L 2913 2700 
L 1759 2700 
L 1759 1216 
Q 1759 972 1856 886 
Q 1953 800 2241 800 
L 2816 800 
L 2816 0 
L 1856 0 
Q 1194 0 917 276 
Q 641 553 641 1216 
L 641 2700 
L 84 2700 
L 84 3500 
L 641 3500 
L 641 4494 
L 1759 4494 
z
" transform="scale(0.015625)"/>
      <path id="DejaVuSans-Bold-4c" d="M 538 3500 
L 1656 3500 
L 1656 0 
L 538 0 
L 538 3500 
z
M 538 4863 
L 1656 4863 
L 1656 3950 
L 538 3950 
L 538 4863 
z
" transform="scale(0.015625)"/>
      <path id="DejaVuSans-Bold-51" d="M 4056 2131 
L 4056 0 
L 2931 0 
L 2931 347 
L 2931 1631 
Q 2931 2084 2911 2256 
Q 2891 2428 2841 2509 
Q 2775 2619 2662 2680 
Q 2550 2741 2406 2741 
Q 2056 2741 1856 2470 
Q 1656 2200 1656 1722 
L 1656 0 
L 538 0 
L 538 3500 
L 1656 3500 
L 1656 2988 
Q 1909 3294 2193 3439 
Q 2478 3584 2822 3584 
Q 3428 3584 3742 3212 
Q 4056 2841 4056 2131 
z
" transform="scale(0.015625)"/>
     </defs>
     <use xlink:href="#DejaVuSans-Bold-33"/>
     <use xlink:href="#DejaVuSans-Bold-52" transform="translate(73.296875 0)"/>
     <use xlink:href="#DejaVuSans-Bold-56" transform="translate(142 0)"/>
     <use xlink:href="#DejaVuSans-Bold-48" transform="translate(201.515625 0)"/>
     <use xlink:href="#DejaVuSans-Bold-3" transform="translate(269.34375 0)"/>
     <use xlink:href="#DejaVuSans-Bold-55" transform="translate(304.15625 0)"/>
     <use xlink:href="#DejaVuSans-Bold-48" transform="translate(353.46875 0)"/>
     <use xlink:href="#DejaVuSans-Bold-53" transform="translate(421.296875 0)"/>
     <use xlink:href="#DejaVuSans-Bold-55" transform="translate(492.875 0)"/>
     <use xlink:href="#DejaVuSans-Bold-52" transform="translate(542.1875 0)"/>
     <use xlink:href="#DejaVuSans-Bold-4d" transform="translate(610.890625 0)"/>
     <use xlink:href="#DejaVuSans-Bold-48" transform="translate(645.171875 0)"/>
     <use xlink:href="#DejaVuSans-Bold-46" transform="translate(713 0)"/>
     <use xlink:href="#DejaVuSans-Bold-57" transform="translate(772.28125 0)"/>
     <use xlink:href="#DejaVuSans-Bold-4c" transform="translate(820.078125 0)"/>
     <use xlink:href="#DejaVuSans-Bold-52" transform="translate(854.359375 0)"/>
     <use xlink:href="#DejaVuSans-Bold-51" transform="translate(923.0625 0)"/>
     <use xlink:href="#DejaVuSans-Bold-3" transform="translate(994.25 0)"/>
     <use xlink:href="#DejaVuSans-Bold-48" transform="translate(1029.0625 0)"/>
     <use xlink:href="#DejaVuSans-Bold-55" transform="translate(1096.890625 0)"/>
     <use xlink:href="#DejaVuSans-Bold-55" transform="translate(1146.203125 0)"/>
     <use xlink:href="#DejaVuSans-Bold-52" transform="translate(1195.515625 0)"/>
     <use xlink:href="#DejaVuSans-Bold-55" transform="translate(1264.21875 0)"/>
    </g>
   </g>
   <g id="legend_1">
    <g id="line2d_37">
     <path d="M 374.104687 56.716594 
L 383.104687 56.716594 
L 392.104687 56.716594 
" style="fill: none; stroke: #2457a7; stroke-width: 1.3; stroke-linecap: square"/>
    </g>
    <g id="text_21">
     <!-- Reprojection RMS -->
     <g transform="translate(399.304687 59.866594) scale(0.09 -0.09)">
      <defs>
       <path id="DejaVuSans-4d" d="M 603 3500 
L 1178 3500 
L 1178 -63 
Q 1178 -731 923 -1031 
Q 669 -1331 103 -1331 
L -116 -1331 
L -116 -844 
L 38 -844 
Q 366 -844 484 -692 
Q 603 -541 603 -63 
L 603 3500 
z
M 603 4863 
L 1178 4863 
L 1178 4134 
L 603 4134 
L 603 4863 
z
" transform="scale(0.015625)"/>
      </defs>
      <use xlink:href="#DejaVuSans-35"/>
      <use xlink:href="#DejaVuSans-48" transform="translate(65 0)"/>
      <use xlink:href="#DejaVuSans-53" transform="translate(126.53125 0)"/>
      <use xlink:href="#DejaVuSans-55" transform="translate(190.015625 0)"/>
      <use xlink:href="#DejaVuSans-52" transform="translate(228.921875 0)"/>
      <use xlink:href="#DejaVuSans-4d" transform="translate(290.109375 0)"/>
      <use xlink:href="#DejaVuSans-48" transform="translate(317.890625 0)"/>
      <use xlink:href="#DejaVuSans-46" transform="translate(379.421875 0)"/>
      <use xlink:href="#DejaVuSans-57" transform="translate(434.40625 0)"/>
      <use xlink:href="#DejaVuSans-4c" transform="translate(473.609375 0)"/>
      <use xlink:href="#DejaVuSans-52" transform="translate(501.390625 0)"/>
      <use xlink:href="#DejaVuSans-51" transform="translate(562.578125 0)"/>
      <use xlink:href="#DejaVuSans-3" transform="translate(625.953125 0)"/>
      <use xlink:href="#DejaVuSans-35" transform="translate(657.734375 0)"/>
      <use xlink:href="#DejaVuSans-30" transform="translate(727.21875 0)"/>
      <use xlink:href="#DejaVuSans-36" transform="translate(813.5 0)"/>
     </g>
    </g>
    <g id="PathCollection_2">
     <g>
      <use xlink:href="#m731984c059" x="505.233281" y="57.504094" style="fill: #c15f12; stroke: #c15f12"/>
     </g>
    </g>
    <g id="text_22">
     <!-- Rejected Pose fit -->
     <g transform="translate(521.433281 59.866594) scale(0.09 -0.09)">
      <defs>
       <path id="DejaVuSans-33" d="M 1259 4147 
L 1259 2394 
L 2053 2394 
Q 2494 2394 2734 2622 
Q 2975 2850 2975 3272 
Q 2975 3691 2734 3919 
Q 2494 4147 2053 4147 
L 1259 4147 
z
M 628 4666 
L 2053 4666 
Q 2838 4666 3239 4311 
Q 3641 3956 3641 3272 
Q 3641 2581 3239 2228 
Q 2838 1875 2053 1875 
L 1259 1875 
L 1259 0 
L 628 0 
L 628 4666 
z
" transform="scale(0.015625)"/>
       <path id="DejaVuSans-13af" d="M 3431 3500 
L 3431 0 
L 2853 0 
L 2853 3053 
L 1275 3053 
L 1275 0 
L 697 0 
L 697 3053 
L 147 3053 
L 147 3500 
L 697 3500 
L 697 3744 
Q 697 4316 967 4589 
Q 1238 4863 1797 4863 
L 2375 4863 
L 2375 4384 
L 1825 4384 
Q 1516 4384 1395 4259 
Q 1275 4134 1275 3809 
L 1275 3500 
L 3431 3500 
z
M 2853 4856 
L 3431 4856 
L 3431 4128 
L 2853 4128 
L 2853 4856 
z
" transform="scale(0.015625)"/>
      </defs>
      <use xlink:href="#DejaVuSans-35"/>
      <use xlink:href="#DejaVuSans-48" transform="translate(65 0)"/>
      <use xlink:href="#DejaVuSans-4d" transform="translate(126.53125 0)"/>
      <use xlink:href="#DejaVuSans-48" transform="translate(154.3125 0)"/>
      <use xlink:href="#DejaVuSans-46" transform="translate(215.84375 0)"/>
      <use xlink:href="#DejaVuSans-57" transform="translate(270.828125 0)"/>
      <use xlink:href="#DejaVuSans-48" transform="translate(310.03125 0)"/>
      <use xlink:href="#DejaVuSans-47" transform="translate(371.5625 0)"/>
      <use xlink:href="#DejaVuSans-3" transform="translate(435.046875 0)"/>
      <use xlink:href="#DejaVuSans-33" transform="translate(466.828125 0)"/>
      <use xlink:href="#DejaVuSans-52" transform="translate(523.5625 0)"/>
      <use xlink:href="#DejaVuSans-56" transform="translate(584.75 0)"/>
      <use xlink:href="#DejaVuSans-48" transform="translate(636.84375 0)"/>
      <use xlink:href="#DejaVuSans-3" transform="translate(698.375 0)"/>
      <use xlink:href="#DejaVuSans-13af" transform="translate(730.15625 0)"/>
      <use xlink:href="#DejaVuSans-57" transform="translate(793.140625 0)"/>
     </g>
    </g>
    <g id="line2d_38">
     <path d="M 614.344219 56.716594 
L 623.344219 56.716594 
L 632.344219 56.716594 
" style="fill: none; stroke-dasharray: 5.18,2.24; stroke-dashoffset: 0; stroke: #ba3434; stroke-width: 1.4"/>
    </g>
    <g id="text_23">
     <!-- Acceptance limit: 1.667 px -->
     <g transform="translate(639.544219 59.866594) scale(0.09 -0.09)">
      <defs>
       <path id="DejaVuSans-24" d="M 2188 4044 
L 1331 1722 
L 3047 1722 
L 2188 4044 
z
M 1831 4666 
L 2547 4666 
L 4325 0 
L 3669 0 
L 3244 1197 
L 1141 1197 
L 716 0 
L 50 0 
L 1831 4666 
z
" transform="scale(0.015625)"/>
       <path id="DejaVuSans-1d" d="M 750 794 
L 1409 794 
L 1409 0 
L 750 0 
L 750 794 
z
M 750 3309 
L 1409 3309 
L 1409 2516 
L 750 2516 
L 750 3309 
z
" transform="scale(0.015625)"/>
       <path id="DejaVuSans-1a" d="M 525 4666 
L 3525 4666 
L 3525 4397 
L 1831 0 
L 1172 0 
L 2766 4134 
L 525 4134 
L 525 4666 
z
" transform="scale(0.015625)"/>
      </defs>
      <use xlink:href="#DejaVuSans-24"/>
      <use xlink:href="#DejaVuSans-46" transform="translate(66.65625 0)"/>
      <use xlink:href="#DejaVuSans-46" transform="translate(121.640625 0)"/>
      <use xlink:href="#DejaVuSans-48" transform="translate(176.625 0)"/>
      <use xlink:href="#DejaVuSans-53" transform="translate(238.15625 0)"/>
      <use xlink:href="#DejaVuSans-57" transform="translate(301.640625 0)"/>
      <use xlink:href="#DejaVuSans-44" transform="translate(340.84375 0)"/>
      <use xlink:href="#DejaVuSans-51" transform="translate(402.125 0)"/>
      <use xlink:href="#DejaVuSans-46" transform="translate(465.5 0)"/>
      <use xlink:href="#DejaVuSans-48" transform="translate(520.484375 0)"/>
      <use xlink:href="#DejaVuSans-3" transform="translate(582.015625 0)"/>
      <use xlink:href="#DejaVuSans-4f" transform="translate(613.796875 0)"/>
      <use xlink:href="#DejaVuSans-4c" transform="translate(641.578125 0)"/>
      <use xlink:href="#DejaVuSans-50" transform="translate(669.359375 0)"/>
      <use xlink:href="#DejaVuSans-4c" transform="translate(766.765625 0)"/>
      <use xlink:href="#DejaVuSans-57" transform="translate(794.546875 0)"/>
      <use xlink:href="#DejaVuSans-1d" transform="translate(833.75 0)"/>
      <use xlink:href="#DejaVuSans-3" transform="translate(867.4375 0)"/>
      <use xlink:href="#DejaVuSans-14" transform="translate(899.21875 0)"/>
      <use xlink:href="#DejaVuSans-11" transform="translate(962.84375 0)"/>
      <use xlink:href="#DejaVuSans-19" transform="translate(994.625 0)"/>
      <use xlink:href="#DejaVuSans-19" transform="translate(1058.25 0)"/>
      <use xlink:href="#DejaVuSans-1a" transform="translate(1121.875 0)"/>
      <use xlink:href="#DejaVuSans-3" transform="translate(1185.5 0)"/>
      <use xlink:href="#DejaVuSans-53" transform="translate(1217.28125 0)"/>
      <use xlink:href="#DejaVuSans-5b" transform="translate(1280.765625 0)"/>
     </g>
    </g>
   </g>
  </g>
  <g id="text_24">
   <!-- Missing estimates and unprocessed frames are gaps. A low fit error does not verify metric distance. -->
   <g style="fill: #555555" transform="translate(63.36 361.296) scale(0.09 -0.09)">
    <defs>
     <path id="DejaVuSans-49" d="M 2375 4863 
L 2375 4384 
L 1825 4384 
Q 1516 4384 1395 4259 
Q 1275 4134 1275 3809 
L 1275 3500 
L 2222 3500 
L 2222 3053 
L 1275 3053 
L 1275 0 
L 697 0 
L 697 3053 
L 147 3053 
L 147 3500 
L 697 3500 
L 697 3744 
Q 697 4328 969 4595 
Q 1241 4863 1831 4863 
L 2375 4863 
z
" transform="scale(0.015625)"/>
     <path id="DejaVuSans-5c" d="M 2059 -325 
Q 1816 -950 1584 -1140 
Q 1353 -1331 966 -1331 
L 506 -1331 
L 506 -850 
L 844 -850 
Q 1081 -850 1212 -737 
Q 1344 -625 1503 -206 
L 1606 56 
L 191 3500 
L 800 3500 
L 1894 763 
L 2988 3500 
L 3597 3500 
L 2059 -325 
z
" transform="scale(0.015625)"/>
    </defs>
    <use xlink:href="#DejaVuSans-30"/>
    <use xlink:href="#DejaVuSans-4c" transform="translate(86.28125 0)"/>
    <use xlink:href="#DejaVuSans-56" transform="translate(114.0625 0)"/>
    <use xlink:href="#DejaVuSans-56" transform="translate(166.15625 0)"/>
    <use xlink:href="#DejaVuSans-4c" transform="translate(218.25 0)"/>
    <use xlink:href="#DejaVuSans-51" transform="translate(246.03125 0)"/>
    <use xlink:href="#DejaVuSans-4a" transform="translate(309.40625 0)"/>
    <use xlink:href="#DejaVuSans-3" transform="translate(372.890625 0)"/>
    <use xlink:href="#DejaVuSans-48" transform="translate(404.671875 0)"/>
    <use xlink:href="#DejaVuSans-56" transform="translate(466.203125 0)"/>
    <use xlink:href="#DejaVuSans-57" transform="translate(518.296875 0)"/>
    <use xlink:href="#DejaVuSans-4c" transform="translate(557.5 0)"/>
    <use xlink:href="#DejaVuSans-50" transform="translate(585.28125 0)"/>
    <use xlink:href="#DejaVuSans-44" transform="translate(682.6875 0)"/>
    <use xlink:href="#DejaVuSans-57" transform="translate(743.96875 0)"/>
    <use xlink:href="#DejaVuSans-48" transform="translate(783.171875 0)"/>
    <use xlink:href="#DejaVuSans-56" transform="translate(844.703125 0)"/>
    <use xlink:href="#DejaVuSans-3" transform="translate(896.796875 0)"/>
    <use xlink:href="#DejaVuSans-44" transform="translate(928.578125 0)"/>
    <use xlink:href="#DejaVuSans-51" transform="translate(989.859375 0)"/>
    <use xlink:href="#DejaVuSans-47" transform="translate(1053.234375 0)"/>
    <use xlink:href="#DejaVuSans-3" transform="translate(1116.71875 0)"/>
    <use xlink:href="#DejaVuSans-58" transform="translate(1148.5 0)"/>
    <use xlink:href="#DejaVuSans-51" transform="translate(1211.875 0)"/>
    <use xlink:href="#DejaVuSans-53" transform="translate(1275.25 0)"/>
    <use xlink:href="#DejaVuSans-55" transform="translate(1338.734375 0)"/>
    <use xlink:href="#DejaVuSans-52" transform="translate(1377.640625 0)"/>
    <use xlink:href="#DejaVuSans-46" transform="translate(1438.828125 0)"/>
    <use xlink:href="#DejaVuSans-48" transform="translate(1493.8125 0)"/>
    <use xlink:href="#DejaVuSans-56" transform="translate(1555.34375 0)"/>
    <use xlink:href="#DejaVuSans-56" transform="translate(1607.4375 0)"/>
    <use xlink:href="#DejaVuSans-48" transform="translate(1659.53125 0)"/>
    <use xlink:href="#DejaVuSans-47" transform="translate(1721.0625 0)"/>
    <use xlink:href="#DejaVuSans-3" transform="translate(1784.546875 0)"/>
    <use xlink:href="#DejaVuSans-49" transform="translate(1816.328125 0)"/>
    <use xlink:href="#DejaVuSans-55" transform="translate(1851.53125 0)"/>
    <use xlink:href="#DejaVuSans-44" transform="translate(1892.640625 0)"/>
    <use xlink:href="#DejaVuSans-50" transform="translate(1953.921875 0)"/>
    <use xlink:href="#DejaVuSans-48" transform="translate(2051.328125 0)"/>
    <use xlink:href="#DejaVuSans-56" transform="translate(2112.859375 0)"/>
    <use xlink:href="#DejaVuSans-3" transform="translate(2164.953125 0)"/>
    <use xlink:href="#DejaVuSans-44" transform="translate(2196.734375 0)"/>
    <use xlink:href="#DejaVuSans-55" transform="translate(2258.015625 0)"/>
    <use xlink:href="#DejaVuSans-48" transform="translate(2296.921875 0)"/>
    <use xlink:href="#DejaVuSans-3" transform="translate(2358.453125 0)"/>
    <use xlink:href="#DejaVuSans-4a" transform="translate(2390.234375 0)"/>
    <use xlink:href="#DejaVuSans-44" transform="translate(2453.71875 0)"/>
    <use xlink:href="#DejaVuSans-53" transform="translate(2515 0)"/>
    <use xlink:href="#DejaVuSans-56" transform="translate(2578.484375 0)"/>
    <use xlink:href="#DejaVuSans-11" transform="translate(2630.578125 0)"/>
    <use xlink:href="#DejaVuSans-3" transform="translate(2662.359375 0)"/>
    <use xlink:href="#DejaVuSans-24" transform="translate(2694.140625 0)"/>
    <use xlink:href="#DejaVuSans-3" transform="translate(2762.546875 0)"/>
    <use xlink:href="#DejaVuSans-4f" transform="translate(2794.328125 0)"/>
    <use xlink:href="#DejaVuSans-52" transform="translate(2822.109375 0)"/>
    <use xlink:href="#DejaVuSans-5a" transform="translate(2883.296875 0)"/>
    <use xlink:href="#DejaVuSans-3" transform="translate(2965.078125 0)"/>
    <use xlink:href="#DejaVuSans-13af" transform="translate(2996.859375 0)"/>
    <use xlink:href="#DejaVuSans-57" transform="translate(3059.84375 0)"/>
    <use xlink:href="#DejaVuSans-3" transform="translate(3099.046875 0)"/>
    <use xlink:href="#DejaVuSans-48" transform="translate(3130.828125 0)"/>
    <use xlink:href="#DejaVuSans-55" transform="translate(3192.359375 0)"/>
    <use xlink:href="#DejaVuSans-55" transform="translate(3231.71875 0)"/>
    <use xlink:href="#DejaVuSans-52" transform="translate(3270.625 0)"/>
    <use xlink:href="#DejaVuSans-55" transform="translate(3331.8125 0)"/>
    <use xlink:href="#DejaVuSans-3" transform="translate(3372.921875 0)"/>
    <use xlink:href="#DejaVuSans-47" transform="translate(3404.703125 0)"/>
    <use xlink:href="#DejaVuSans-52" transform="translate(3468.1875 0)"/>
    <use xlink:href="#DejaVuSans-48" transform="translate(3529.375 0)"/>
    <use xlink:href="#DejaVuSans-56" transform="translate(3590.90625 0)"/>
    <use xlink:href="#DejaVuSans-3" transform="translate(3643 0)"/>
    <use xlink:href="#DejaVuSans-51" transform="translate(3674.78125 0)"/>
    <use xlink:href="#DejaVuSans-52" transform="translate(3738.15625 0)"/>
    <use xlink:href="#DejaVuSans-57" transform="translate(3799.34375 0)"/>
    <use xlink:href="#DejaVuSans-3" transform="translate(3838.546875 0)"/>
    <use xlink:href="#DejaVuSans-59" transform="translate(3870.328125 0)"/>
    <use xlink:href="#DejaVuSans-48" transform="translate(3929.515625 0)"/>
    <use xlink:href="#DejaVuSans-55" transform="translate(3991.046875 0)"/>
    <use xlink:href="#DejaVuSans-4c" transform="translate(4032.15625 0)"/>
    <use xlink:href="#DejaVuSans-49" transform="translate(4059.9375 0)"/>
    <use xlink:href="#DejaVuSans-5c" transform="translate(4093.390625 0)"/>
    <use xlink:href="#DejaVuSans-3" transform="translate(4152.578125 0)"/>
    <use xlink:href="#DejaVuSans-50" transform="translate(4184.359375 0)"/>
    <use xlink:href="#DejaVuSans-48" transform="translate(4281.765625 0)"/>
    <use xlink:href="#DejaVuSans-57" transform="translate(4343.296875 0)"/>
    <use xlink:href="#DejaVuSans-55" transform="translate(4382.5 0)"/>
    <use xlink:href="#DejaVuSans-4c" transform="translate(4423.609375 0)"/>
    <use xlink:href="#DejaVuSans-46" transform="translate(4451.390625 0)"/>
    <use xlink:href="#DejaVuSans-3" transform="translate(4506.375 0)"/>
    <use xlink:href="#DejaVuSans-47" transform="translate(4538.15625 0)"/>
    <use xlink:href="#DejaVuSans-4c" transform="translate(4601.640625 0)"/>
    <use xlink:href="#DejaVuSans-56" transform="translate(4629.421875 0)"/>
    <use xlink:href="#DejaVuSans-57" transform="translate(4681.515625 0)"/>
    <use xlink:href="#DejaVuSans-44" transform="translate(4720.71875 0)"/>
    <use xlink:href="#DejaVuSans-51" transform="translate(4782 0)"/>
    <use xlink:href="#DejaVuSans-46" transform="translate(4845.375 0)"/>
    <use xlink:href="#DejaVuSans-48" transform="translate(4900.359375 0)"/>
    <use xlink:href="#DejaVuSans-11" transform="translate(4961.890625 0)"/>
   </g>
  </g>
 </g>
 <defs>
  <clipPath id="p0cd89af68d">
   <rect x="95.04" y="44.928" width="673.2" height="258.336"/>
  </clipPath>
 </defs>
</svg>
