<?xml version="1.0" encoding="utf-8" standalone="no"?>
<!DOCTYPE svg PUBLIC "-//W3C//DTD SVG 1.1//EN"
  "http://www.w3.org/Graphics/SVG/1.1/DTD/svg11.dtd">
<svg xmlns:xlink="http://www.w3.org/1999/xlink" width="792pt" height="374.4pt" viewBox="0 0 792 374.4" xmlns="http://www.w3.org/2000/svg" version="1.1">
 <metadata>
  <rdf:RDF xmlns:dc="http://purl.org/dc/elements/1.1/" xmlns:cc="http://creativecommons.org/ns#" xmlns:rdf="http://www.w3.org/1999/02/22-rdf-syntax-ns#">
   <cc:Work>
    <dc:type rdf:resource="http://purl.org/dc/dcmitype/StillImage"/>
    <dc:date>2026-09-14T18:18:56.516012</dc:date>
    <dc:format>image/svg+xml</dc:format>
    <dc:creator>
     <cc:Agent>
      <dc:title>Matplotlib v3.11.1, https://matplotlib.org/</dc:title>
     </cc:Agent>
    </dc:creator>
   </cc:Work>
  </rdf:RDF>
 </metadata>
 <defs>
  <style type="text/css">*{stroke-linejoin: round; stroke-linecap: butt}</style>
 </defs>
 <g id="figure_1">
  <g id="patch_1">
   <path d="M 0 374.4 
L 792 374.4 
L 792 0 
L 0 0 
z
" style="fill: #ffffff"/>
  </g>
  <g id="axes_1">
   <g id="patch_2">
    <path d="M 95.04 303.264 
L 768.24 303.264 
L 768.24 44.928 
L 95.04 44.928 
z
" style="fill: #ffffff"/>
   </g>
   <g id="matplotlib.axis_1">
    <g id="xtick_1">
     <g id="line2d_1">
      <path d="M 95.04 303.264 
L 95.04 44.928 
" clip-path="url(#p24bc090239)" style="fill: none; stroke: #b0b0b0; stroke-opacity: 0.18; stroke-width: 0.8; stroke-linecap: square"/>
     </g>
     <g id="line2d_2">
      <defs>
       <path id="m9d2c1e2334" d="M 0 0 
L 0 3.5 
" style="stroke: #000000; stroke-width: 0.8"/>
      </defs>
      <g>
       <use xlink:href="#m9d2c1e2334" x="95.04" y="303.264" style="stroke: #000000; stroke-width: 0.8"/>
      </g>
     </g>
     <g id="text_1">
      <!-- 0 -->
      <g transform="translate(91.540625 318.621422) scale(0.11 -0.11)">
       <defs>
        <path id="DejaVuSans-13" d="M 2034 4250 
Q 1547 4250 1301 3770 
Q 1056 3291 1056 2328 
Q 1056 1369 1301 889 
Q 1547 409 2034 409 
Q 2525 409 2770 889 
Q 3016 1369 3016 2328 
Q 3016 3291 2770 3770 
Q 2525 4250 2034 4250 
z
M 2034 4750 
Q 2819 4750 3233 4129 
Q 3647 3509 3647 2328 
Q 3647 1150 3233 529 
Q 2819 -91 2034 -91 
Q 1250 -91 836 529 
Q 422 1150 422 2328 
Q 422 3509 836 4129 
Q 1250 4750 2034 4750 
z
" transform="scale(0.015625)"/>
       </defs>
       <use xlink:href="#DejaVuSans-13"/>
      </g>
     </g>
    </g>
    <g id="xtick_2">
     <g id="line2d_3">
      <path d="M 241.982674 303.264 
L 241.982674 44.928 
" clip-path="url(#p24bc090239)" style="fill: none; stroke: #b0b0b0; stroke-opacity: 0.18; stroke-width: 0.8; stroke-linecap: square"/>
     </g>
     <g id="line2d_4">
      <g>
       <use xlink:href="#m9d2c1e2334" x="241.982674" y="303.264" style="stroke: #000000; stroke-width: 0.8"/>
      </g>
     </g>
     <g id="text_2">
      <!-- 2 -->
      <g transform="translate(238.483299 318.621422) scale(0.11 -0.11)">
       <defs>
        <path id="DejaVuSans-15" d="M 1228 531 
L 3431 531 
L 3431 0 
L 469 0 
L 469 531 
Q 828 903 1448 1529 
Q 2069 2156 2228 2338 
Q 2531 2678 2651 2914 
Q 2772 3150 2772 3378 
Q 2772 3750 2511 3984 
Q 2250 4219 1831 4219 
Q 1534 4219 1204 4116 
Q 875 4013 500 3803 
L 500 4441 
Q 881 4594 1212 4672 
Q 1544 4750 1819 4750 
Q 2544 4750 2975 4387 
Q 3406 4025 3406 3419 
Q 3406 3131 3298 2873 
Q 3191 2616 2906 2266 
Q 2828 2175 2409 1742 
Q 1991 1309 1228 531 
z
" transform="scale(0.015625)"/>
       </defs>
       <use xlink:href="#DejaVuSans-15"/>
      </g>
     </g>
    </g>
    <g id="xtick_3">
     <g id="line2d_5">
      <path d="M 388.925349 303.264 
L 388.925349 44.928 
" clip-path="url(#p24bc090239)" style="fill: none; stroke: #b0b0b0; stroke-opacity: 0.18; stroke-width: 0.8; stroke-linecap: square"/>
     </g>
     <g id="line2d_6">
      <g>
       <use xlink:href="#m9d2c1e2334" x="388.925349" y="303.264" style="stroke: #000000; stroke-width: 0.8"/>
      </g>
     </g>
     <g id="text_3">
      <!-- 4 -->
      <g transform="translate(385.425974 318.621422) scale(0.11 -0.11)">
       <defs>
        <path id="DejaVuSans-17" d="M 2419 4116 
L 825 1625 
L 2419 1625 
L 2419 4116 
z
M 2253 4666 
L 3047 4666 
L 3047 1625 
L 3713 1625 
L 3713 1100 
L 3047 1100 
L 3047 0 
L 2419 0 
L 2419 1100 
L 313 1100 
L 313 1709 
L 2253 4666 
z
" transform="scale(0.015625)"/>
       </defs>
       <use xlink:href="#DejaVuSans-17"/>
      </g>
     </g>
    </g>
    <g id="xtick_4">
     <g id="line2d_7">
      <path d="M 535.868023 303.264 
L 535.868023 44.928 
" clip-path="url(#p24bc090239)" style="fill: none; stroke: #b0b0b0; stroke-opacity: 0.18; stroke-width: 0.8; stroke-linecap: square"/>
     </g>
     <g id="line2d_8">
      <g>
       <use xlink:href="#m9d2c1e2334" x="535.868023" y="303.264" style="stroke: #000000; stroke-width: 0.8"/>
      </g>
     </g>
     <g id="text_4">
      <!-- 6 -->
      <g transform="translate(532.368648 318.621422) scale(0.11 -0.11)">
       <defs>
        <path id="DejaVuSans-19" d="M 2113 2584 
Q 1688 2584 1439 2293 
Q 1191 2003 1191 1497 
Q 1191 994 1439 701 
Q 1688 409 2113 409 
Q 2538 409 2786 701 
Q 3034 994 3034 1497 
Q 3034 2003 2786 2293 
Q 2538 2584 2113 2584 
z
M 3366 4563 
L 3366 3988 
Q 3128 4100 2886 4159 
Q 2644 4219 2406 4219 
Q 1781 4219 1451 3797 
Q 1122 3375 1075 2522 
Q 1259 2794 1537 2939 
Q 1816 3084 2150 3084 
Q 2853 3084 3261 2657 
Q 3669 2231 3669 1497 
Q 3669 778 3244 343 
Q 2819 -91 2113 -91 
Q 1303 -91 875 529 
Q 447 1150 447 2328 
Q 447 3434 972 4092 
Q 1497 4750 2381 4750 
Q 2619 4750 2861 4703 
Q 3103 4656 3366 4563 
z
" transform="scale(0.015625)"/>
       </defs>
       <use xlink:href="#DejaVuSans-19"/>
      </g>
     </g>
    </g>
    <g id="xtick_5">
     <g id="line2d_9">
      <path d="M 682.810698 303.264 
L 682.810698 44.928 
" clip-path="url(#p24bc090239)" style="fill: none; stroke: #b0b0b0; stroke-opacity: 0.18; stroke-width: 0.8; stroke-linecap: square"/>
     </g>
     <g id="line2d_10">
      <g>
       <use xlink:href="#m9d2c1e2334" x="682.810698" y="303.264" style="stroke: #000000; stroke-width: 0.8"/>
      </g>
     </g>
     <g id="text_5">
      <!-- 8 -->
      <g transform="translate(679.311323 318.621422) scale(0.11 -0.11)">
       <defs>
        <path id="DejaVuSans-1b" d="M 2034 2216 
Q 1584 2216 1326 1975 
Q 1069 1734 1069 1313 
Q 1069 891 1326 650 
Q 1584 409 2034 409 
Q 2484 409 2743 651 
Q 3003 894 3003 1313 
Q 3003 1734 2745 1975 
Q 2488 2216 2034 2216 
z
M 1403 2484 
Q 997 2584 770 2862 
Q 544 3141 544 3541 
Q 544 4100 942 4425 
Q 1341 4750 2034 4750 
Q 2731 4750 3128 4425 
Q 3525 4100 3525 3541 
Q 3525 3141 3298 2862 
Q 3072 2584 2669 2484 
Q 3125 2378 3379 2068 
Q 3634 1759 3634 1313 
Q 3634 634 3220 271 
Q 2806 -91 2034 -91 
Q 1263 -91 848 271 
Q 434 634 434 1313 
Q 434 1759 690 2068 
Q 947 2378 1403 2484 
z
M 1172 3481 
Q 1172 3119 1398 2916 
Q 1625 2713 2034 2713 
Q 2441 2713 2670 2916 
Q 2900 3119 2900 3481 
Q 2900 3844 2670 4047 
Q 2441 4250 2034 4250 
Q 1625 4250 1398 4047 
Q 1172 3844 1172 3481 
z
" transform="scale(0.015625)"/>
       </defs>
       <use xlink:href="#DejaVuSans-1b"/>
      </g>
     </g>
    </g>
    <g id="text_6">
     <!-- Source video time (s) -->
     <g transform="translate(372.898281 333.622281) scale(0.11 -0.11)">
      <defs>
       <path id="DejaVuSans-36" d="M 3425 4513 
L 3425 3897 
Q 3066 4069 2747 4153 
Q 2428 4238 2131 4238 
Q 1616 4238 1336 4038 
Q 1056 3838 1056 3469 
Q 1056 3159 1242 3001 
Q 1428 2844 1947 2747 
L 2328 2669 
Q 3034 2534 3370 2195 
Q 3706 1856 3706 1288 
Q 3706 609 3251 259 
Q 2797 -91 1919 -91 
Q 1588 -91 1214 -16 
Q 841 59 441 206 
L 441 856 
Q 825 641 1194 531 
Q 1563 422 1919 422 
Q 2459 422 2753 634 
Q 3047 847 3047 1241 
Q 3047 1584 2836 1778 
Q 2625 1972 2144 2069 
L 1759 2144 
Q 1053 2284 737 2584 
Q 422 2884 422 3419 
Q 422 4038 858 4394 
Q 1294 4750 2059 4750 
Q 2388 4750 2728 4690 
Q 3069 4631 3425 4513 
z
" transform="scale(0.015625)"/>
       <path id="DejaVuSans-52" d="M 1959 3097 
Q 1497 3097 1228 2736 
Q 959 2375 959 1747 
Q 959 1119 1226 758 
Q 1494 397 1959 397 
Q 2419 397 2687 759 
Q 2956 1122 2956 1747 
Q 2956 2369 2687 2733 
Q 2419 3097 1959 3097 
z
M 1959 3584 
Q 2709 3584 3137 3096 
Q 3566 2609 3566 1747 
Q 3566 888 3137 398 
Q 2709 -91 1959 -91 
Q 1206 -91 779 398 
Q 353 888 353 1747 
Q 353 2609 779 3096 
Q 1206 3584 1959 3584 
z
" transform="scale(0.015625)"/>
       <path id="DejaVuSans-58" d="M 544 1381 
L 544 3500 
L 1119 3500 
L 1119 1403 
Q 1119 906 1312 657 
Q 1506 409 1894 409 
Q 2359 409 2629 706 
Q 2900 1003 2900 1516 
L 2900 3500 
L 3475 3500 
L 3475 0 
L 2900 0 
L 2900 538 
Q 2691 219 2414 64 
Q 2138 -91 1772 -91 
Q 1169 -91 856 284 
Q 544 659 544 1381 
z
M 1991 3584 
L 1991 3584 
z
" transform="scale(0.015625)"/>
       <path id="DejaVuSans-55" d="M 2631 2963 
Q 2534 3019 2420 3045 
Q 2306 3072 2169 3072 
Q 1681 3072 1420 2755 
Q 1159 2438 1159 1844 
L 1159 0 
L 581 0 
L 581 3500 
L 1159 3500 
L 1159 2956 
Q 1341 3275 1631 3429 
Q 1922 3584 2338 3584 
Q 2397 3584 2469 3576 
Q 2541 3569 2628 3553 
L 2631 2963 
z
" transform="scale(0.015625)"/>
       <path id="DejaVuSans-46" d="M 3122 3366 
L 3122 2828 
Q 2878 2963 2633 3030 
Q 2388 3097 2138 3097 
Q 1578 3097 1268 2742 
Q 959 2388 959 1747 
Q 959 1106 1268 751 
Q 1578 397 2138 397 
Q 2388 397 2633 464 
Q 2878 531 3122 666 
L 3122 134 
Q 2881 22 2623 -34 
Q 2366 -91 2075 -91 
Q 1284 -91 818 406 
Q 353 903 353 1747 
Q 353 2603 823 3093 
Q 1294 3584 2113 3584 
Q 2378 3584 2631 3529 
Q 2884 3475 3122 3366 
z
" transform="scale(0.015625)"/>
       <path id="DejaVuSans-48" d="M 3597 1894 
L 3597 1613 
L 953 1613 
Q 991 1019 1311 708 
Q 1631 397 2203 397 
Q 2534 397 2845 478 
Q 3156 559 3463 722 
L 3463 178 
Q 3153 47 2828 -22 
Q 2503 -91 2169 -91 
Q 1331 -91 842 396 
Q 353 884 353 1716 
Q 353 2575 817 3079 
Q 1281 3584 2069 3584 
Q 2775 3584 3186 3129 
Q 3597 2675 3597 1894 
z
M 3022 2063 
Q 3016 2534 2758 2815 
Q 2500 3097 2075 3097 
Q 1594 3097 1305 2825 
Q 1016 2553 972 2059 
L 3022 2063 
z
" transform="scale(0.015625)"/>
       <path id="DejaVuSans-3" transform="scale(0.015625)"/>
       <path id="DejaVuSans-59" d="M 191 3500 
L 800 3500 
L 1894 563 
L 2988 3500 
L 3597 3500 
L 2284 0 
L 1503 0 
L 191 3500 
z
" transform="scale(0.015625)"/>
       <path id="DejaVuSans-4c" d="M 603 3500 
L 1178 3500 
L 1178 0 
L 603 0 
L 603 3500 
z
M 603 4863 
L 1178 4863 
L 1178 4134 
L 603 4134 
L 603 4863 
z
" transform="scale(0.015625)"/>
       <path id="DejaVuSans-47" d="M 2906 2969 
L 2906 4863 
L 3481 4863 
L 3481 0 
L 2906 0 
L 2906 525 
Q 2725 213 2448 61 
Q 2172 -91 1784 -91 
Q 1150 -91 751 415 
Q 353 922 353 1747 
Q 353 2572 751 3078 
Q 1150 3584 1784 3584 
Q 2172 3584 2448 3432 
Q 2725 3281 2906 2969 
z
M 947 1747 
Q 947 1113 1208 752 
Q 1469 391 1925 391 
Q 2381 391 2643 752 
Q 2906 1113 2906 1747 
Q 2906 2381 2643 2742 
Q 2381 3103 1925 3103 
Q 1469 3103 1208 2742 
Q 947 2381 947 1747 
z
" transform="scale(0.015625)"/>
       <path id="DejaVuSans-57" d="M 1172 4494 
L 1172 3500 
L 2356 3500 
L 2356 3053 
L 1172 3053 
L 1172 1153 
Q 1172 725 1289 603 
Q 1406 481 1766 481 
L 2356 481 
L 2356 0 
L 1766 0 
Q 1100 0 847 248 
Q 594 497 594 1153 
L 594 3053 
L 172 3053 
L 172 3500 
L 594 3500 
L 594 4494 
L 1172 4494 
z
" transform="scale(0.015625)"/>
       <path id="DejaVuSans-50" d="M 3328 2828 
Q 3544 3216 3844 3400 
Q 4144 3584 4550 3584 
Q 5097 3584 5394 3201 
Q 5691 2819 5691 2113 
L 5691 0 
L 5113 0 
L 5113 2094 
Q 5113 2597 4934 2840 
Q 4756 3084 4391 3084 
Q 3944 3084 3684 2787 
Q 3425 2491 3425 1978 
L 3425 0 
L 2847 0 
L 2847 2094 
Q 2847 2600 2669 2842 
Q 2491 3084 2119 3084 
Q 1678 3084 1418 2786 
Q 1159 2488 1159 1978 
L 1159 0 
L 581 0 
L 581 3500 
L 1159 3500 
L 1159 2956 
Q 1356 3278 1631 3431 
Q 1906 3584 2284 3584 
Q 2666 3584 2933 3390 
Q 3200 3197 3328 2828 
z
" transform="scale(0.015625)"/>
       <path id="DejaVuSans-b" d="M 1984 4856 
Q 1566 4138 1362 3434 
Q 1159 2731 1159 2009 
Q 1159 1288 1364 580 
Q 1569 -128 1984 -844 
L 1484 -844 
Q 1016 -109 783 600 
Q 550 1309 550 2009 
Q 550 2706 781 3412 
Q 1013 4119 1484 4856 
L 1984 4856 
z
" transform="scale(0.015625)"/>
       <path id="DejaVuSans-56" d="M 2834 3397 
L 2834 2853 
Q 2591 2978 2328 3040 
Q 2066 3103 1784 3103 
Q 1356 3103 1142 2972 
Q 928 2841 928 2578 
Q 928 2378 1081 2264 
Q 1234 2150 1697 2047 
L 1894 2003 
Q 2506 1872 2764 1633 
Q 3022 1394 3022 966 
Q 3022 478 2636 193 
Q 2250 -91 1575 -91 
Q 1294 -91 989 -36 
Q 684 19 347 128 
L 347 722 
Q 666 556 975 473 
Q 1284 391 1588 391 
Q 1994 391 2212 530 
Q 2431 669 2431 922 
Q 2431 1156 2273 1281 
Q 2116 1406 1581 1522 
L 1381 1569 
Q 847 1681 609 1914 
Q 372 2147 372 2553 
Q 372 3047 722 3315 
Q 1072 3584 1716 3584 
Q 2034 3584 2315 3537 
Q 2597 3491 2834 3397 
z
" transform="scale(0.015625)"/>
       <path id="DejaVuSans-c" d="M 513 4856 
L 1013 4856 
Q 1481 4119 1714 3412 
Q 1947 2706 1947 2009 
Q 1947 1309 1714 600 
Q 1481 -109 1013 -844 
L 513 -844 
Q 928 -128 1133 580 
Q 1338 1288 1338 2009 
Q 1338 2731 1133 3434 
Q 928 4138 513 4856 
z
" transform="scale(0.015625)"/>
      </defs>
      <use xlink:href="#DejaVuSans-36"/>
      <use xlink:href="#DejaVuSans-52" transform="translate(63.484375 0)"/>
      <use xlink:href="#DejaVuSans-58" transform="translate(124.671875 0)"/>
      <use xlink:href="#DejaVuSans-55" transform="translate(188.046875 0)"/>
      <use xlink:href="#DejaVuSans-46" transform="translate(226.953125 0)"/>
      <use xlink:href="#DejaVuSans-48" transform="translate(281.9375 0)"/>
      <use xlink:href="#DejaVuSans-3" transform="translate(343.46875 0)"/>
      <use xlink:href="#DejaVuSans-59" transform="translate(375.25 0)"/>
      <use xlink:href="#DejaVuSans-4c" transform="translate(434.4375 0)"/>
      <use xlink:href="#DejaVuSans-47" transform="translate(462.21875 0)"/>
      <use xlink:href="#DejaVuSans-48" transform="translate(525.703125 0)"/>
      <use xlink:href="#DejaVuSans-52" transform="translate(587.234375 0)"/>
      <use xlink:href="#DejaVuSans-3" transform="translate(648.421875 0)"/>
      <use xlink:href="#DejaVuSans-57" transform="translate(680.203125 0)"/>
      <use xlink:href="#DejaVuSans-4c" transform="translate(719.40625 0)"/>
      <use xlink:href="#DejaVuSans-50" transform="translate(747.1875 0)"/>
      <use xlink:href="#DejaVuSans-48" transform="translate(844.59375 0)"/>
      <use xlink:href="#DejaVuSans-3" transform="translate(906.125 0)"/>
      <use xlink:href="#DejaVuSans-b" transform="translate(937.90625 0)"/>
      <use xlink:href="#DejaVuSans-56" transform="translate(976.921875 0)"/>
      <use xlink:href="#DejaVuSans-c" transform="translate(1029.015625 0)"/>
     </g>
    </g>
   </g>
   <g id="matplotlib.axis_2">
    <g id="ytick_1">
     <g id="line2d_11">
      <path d="M 95.04 303.264 
L 768.24 303.264 
" clip-path="url(#p24bc090239)" style="fill: none; stroke: #b0b0b0; stroke-opacity: 0.18; stroke-width: 0.8; stroke-linecap: square"/>
     </g>
     <g id="line2d_12">
      <defs>
       <path id="mab2e73b1d4" d="M 0 0 
L -3.5 0 
" style="stroke: #000000; stroke-width: 0.8"/>
      </defs>
      <g>
       <use xlink:href="#mab2e73b1d4" x="95.04" y="303.264" style="stroke: #000000; stroke-width: 0.8"/>
      </g>
     </g>
     <g id="text_7">
      <!-- 0 -->
      <g transform="translate(81.04125 307.442711) scale(0.11 -0.11)">
       <use xlink:href="#DejaVuSans-13"/>
      </g>
     </g>
    </g>
    <g id="ytick_2">
     <g id="line2d_13">
      <path d="M 95.04 261.691491 
L 768.24 261.691491 
" clip-path="url(#p24bc090239)" style="fill: none; stroke: #b0b0b0; stroke-opacity: 0.18; stroke-width: 0.8; stroke-linecap: square"/>
     </g>
     <g id="line2d_14">
      <g>
       <use xlink:href="#mab2e73b1d4" x="95.04" y="261.691491" style="stroke: #000000; stroke-width: 0.8"/>
      </g>
     </g>
     <g id="text_8">
      <!-- 50 -->
      <g transform="translate(74.0425 265.870202) scale(0.11 -0.11)">
       <defs>
        <path id="DejaVuSans-18" d="M 691 4666 
L 3169 4666 
L 3169 4134 
L 1269 4134 
L 1269 2991 
Q 1406 3038 1543 3061 
Q 1681 3084 1819 3084 
Q 2600 3084 3056 2656 
Q 3513 2228 3513 1497 
Q 3513 744 3044 326 
Q 2575 -91 1722 -91 
Q 1428 -91 1123 -41 
Q 819 9 494 109 
L 494 744 
Q 775 591 1075 516 
Q 1375 441 1709 441 
Q 2250 441 2565 725 
Q 2881 1009 2881 1497 
Q 2881 1984 2565 2268 
Q 2250 2553 1709 2553 
Q 1456 2553 1204 2497 
Q 953 2441 691 2322 
L 691 4666 
z
" transform="scale(0.015625)"/>
       </defs>
       <use xlink:href="#DejaVuSans-18"/>
       <use xlink:href="#DejaVuSans-13" transform="translate(63.625 0)"/>
      </g>
     </g>
    </g>
    <g id="ytick_3">
     <g id="line2d_15">
      <path d="M 95.04 220.118981 
L 768.24 220.118981 
" clip-path="url(#p24bc090239)" style="fill: none; stroke: #b0b0b0; stroke-opacity: 0.18; stroke-width: 0.8; stroke-linecap: square"/>
     </g>
     <g id="line2d_16">
      <g>
       <use xlink:href="#mab2e73b1d4" x="95.04" y="220.118981" style="stroke: #000000; stroke-width: 0.8"/>
      </g>
     </g>
     <g id="text_9">
      <!-- 100 -->
      <g transform="translate(67.04375 224.297692) scale(0.11 -0.11)">
       <defs>
        <path id="DejaVuSans-14" d="M 794 531 
L 1825 531 
L 1825 4091 
L 703 3866 
L 703 4441 
L 1819 4666 
L 2450 4666 
L 2450 531 
L 3481 531 
L 3481 0 
L 794 0 
L 794 531 
z
" transform="scale(0.015625)"/>
       </defs>
       <use xlink:href="#DejaVuSans-14"/>
       <use xlink:href="#DejaVuSans-13" transform="translate(63.625 0)"/>
       <use xlink:href="#DejaVuSans-13" transform="translate(127.25 0)"/>
      </g>
     </g>
    </g>
    <g id="ytick_4">
     <g id="line2d_17">
      <path d="M 95.04 178.546472 
L 768.24 178.546472 
" clip-path="url(#p24bc090239)" style="fill: none; stroke: #b0b0b0; stroke-opacity: 0.18; stroke-width: 0.8; stroke-linecap: square"/>
     </g>
     <g id="line2d_18">
      <g>
       <use xlink:href="#mab2e73b1d4" x="95.04" y="178.546472" style="stroke: #000000; stroke-width: 0.8"/>
      </g>
     </g>
     <g id="text_10">
      <!-- 150 -->
      <g transform="translate(67.04375 182.725183) scale(0.11 -0.11)">
       <use xlink:href="#DejaVuSans-14"/>
       <use xlink:href="#DejaVuSans-18" transform="translate(63.625 0)"/>
       <use xlink:href="#DejaVuSans-13" transform="translate(127.25 0)"/>
      </g>
     </g>
    </g>
    <g id="ytick_5">
     <g id="line2d_19">
      <path d="M 95.04 136.973963 
L 768.24 136.973963 
" clip-path="url(#p24bc090239)" style="fill: none; stroke: #b0b0b0; stroke-opacity: 0.18; stroke-width: 0.8; stroke-linecap: square"/>
     </g>
     <g id="line2d_20">
      <g>
       <use xlink:href="#mab2e73b1d4" x="95.04" y="136.973963" style="stroke: #000000; stroke-width: 0.8"/>
      </g>
     </g>
     <g id="text_11">
      <!-- 200 -->
      <g transform="translate(67.04375 141.152674) scale(0.11 -0.11)">
       <use xlink:href="#DejaVuSans-15"/>
       <use xlink:href="#DejaVuSans-13" transform="translate(63.625 0)"/>
       <use xlink:href="#DejaVuSans-13" transform="translate(127.25 0)"/>
      </g>
     </g>
    </g>
    <g id="ytick_6">
     <g id="line2d_21">
      <path d="M 95.04 95.401454 
L 768.24 95.401454 
" clip-path="url(#p24bc090239)" style="fill: none; stroke: #b0b0b0; stroke-opacity: 0.18; stroke-width: 0.8; stroke-linecap: square"/>
     </g>
     <g id="line2d_22">
      <g>
       <use xlink:href="#mab2e73b1d4" x="95.04" y="95.401454" style="stroke: #000000; stroke-width: 0.8"/>
      </g>
     </g>
     <g id="text_12">
      <!-- 250 -->
      <g transform="translate(67.04375 99.580165) scale(0.11 -0.11)">
       <use xlink:href="#DejaVuSans-15"/>
       <use xlink:href="#DejaVuSans-18" transform="translate(63.625 0)"/>
       <use xlink:href="#DejaVuSans-13" transform="translate(127.25 0)"/>
      </g>
     </g>
    </g>
    <g id="ytick_7">
     <g id="line2d_23">
      <path d="M 95.04 53.828944 
L 768.24 53.828944 
" clip-path="url(#p24bc090239)" style="fill: none; stroke: #b0b0b0; stroke-opacity: 0.18; stroke-width: 0.8; stroke-linecap: square"/>
     </g>
     <g id="line2d_24">
      <g>
       <use xlink:href="#mab2e73b1d4" x="95.04" y="53.828944" style="stroke: #000000; stroke-width: 0.8"/>
      </g>
     </g>
     <g id="text_13">
      <!-- 300 -->
      <g transform="translate(67.04375 58.007655) scale(0.11 -0.11)">
       <defs>
        <path id="DejaVuSans-16" d="M 2597 2516 
Q 3050 2419 3304 2112 
Q 3559 1806 3559 1356 
Q 3559 666 3084 287 
Q 2609 -91 1734 -91 
Q 1441 -91 1130 -33 
Q 819 25 488 141 
L 488 750 
Q 750 597 1062 519 
Q 1375 441 1716 441 
Q 2309 441 2620 675 
Q 2931 909 2931 1356 
Q 2931 1769 2642 2001 
Q 2353 2234 1838 2234 
L 1294 2234 
L 1294 2753 
L 1863 2753 
Q 2328 2753 2575 2939 
Q 2822 3125 2822 3475 
Q 2822 3834 2567 4026 
Q 2313 4219 1838 4219 
Q 1578 4219 1281 4162 
Q 984 4106 628 3988 
L 628 4550 
Q 988 4650 1302 4700 
Q 1616 4750 1894 4750 
Q 2613 4750 3031 4423 
Q 3450 4097 3450 3541 
Q 3450 3153 3228 2886 
Q 3006 2619 2597 2516 
z
" transform="scale(0.015625)"/>
       </defs>
       <use xlink:href="#DejaVuSans-16"/>
       <use xlink:href="#DejaVuSans-13" transform="translate(63.625 0)"/>
       <use xlink:href="#DejaVuSans-13" transform="translate(127.25 0)"/>
      </g>
     </g>
    </g>
    <g id="text_14">
     <!-- Time (ms) -->
     <g transform="translate(60.401172 201.817719) rotate(-90) scale(0.11 -0.11)">
      <defs>
       <path id="DejaVuSans-37" d="M -19 4666 
L 3928 4666 
L 3928 4134 
L 2272 4134 
L 2272 0 
L 1638 0 
L 1638 4134 
L -19 4134 
L -19 4666 
z
" transform="scale(0.015625)"/>
      </defs>
      <use xlink:href="#DejaVuSans-37"/>
      <use xlink:href="#DejaVuSans-4c" transform="translate(58 0)"/>
      <use xlink:href="#DejaVuSans-50" transform="translate(85.78125 0)"/>
      <use xlink:href="#DejaVuSans-48" transform="translate(183.1875 0)"/>
      <use xlink:href="#DejaVuSans-3" transform="translate(244.71875 0)"/>
      <use xlink:href="#DejaVuSans-b" transform="translate(276.5 0)"/>
      <use xlink:href="#DejaVuSans-50" transform="translate(315.515625 0)"/>
      <use xlink:href="#DejaVuSans-56" transform="translate(412.921875 0)"/>
      <use xlink:href="#DejaVuSans-c" transform="translate(465.015625 0)"/>
     </g>
    </g>
   </g>
   <g id="line2d_25">
    <path d="M 95.04 289.145726 
L 97.488 295.309599 
L 99.936 198.589909 
L 102.384 272.582574 
L 104.832 276.902124 
L 107.28 274.347243 
L 109.728 275.046992 
L 112.176 275.882766 
L 114.624 273.312919 
L 117.072 274.92585 
L 119.52 224.73802 
L 121.968 282.338976 
L 124.416 280.872714 
L 126.864 277.210093 
L 129.312 280.576718 
L 131.76 281.327185 
L 134.208 284.697052 
L 136.656 283.387768 
L 139.104 287.461707 
L 141.552 285.972746 
L 144 235.070867 
L 146.448 282.112988 
L 148.896 289.576085 
L 153.792 283.118877 
L 156.24 282.89954 
L 158.688 285.572819 
L 163.584 278.018844 
L 166.032 283.326739 
L 168.48 241.982879 
L 170.928 283.024424 
L 173.376 282.45937 
L 175.824 280.41816 
L 178.272 238.231459 
L 180.72 288.630144 
L 183.168 285.836721 
L 185.616 284.270103 
L 188.064 281.647127 
L 190.512 283.707294 
L 192.96 283.756183 
L 195.408 233.098833 
L 197.856 280.239565 
L 200.304 284.387503 
L 202.752 281.430617 
L 205.2 283.78703 
L 207.648 278.532015 
L 210.096 283.62814 
L 212.544 278.782531 
L 214.992 284.669115 
L 217.44 285.406196 
L 219.888 242.789469 
L 222.336 288.064841 
L 224.784 275.026621 
L 227.232 286.112679 
L 229.68 285.643326 
L 232.128 283.388765 
L 234.576 279.44819 
L 237.024 287.127464 
L 239.472 283.957145 
L 241.92 281.967568 
L 244.368 241.111353 
L 246.816 280.673498 
L 249.264 283.450376 
L 251.712 287.349628 
L 254.16 227.517059 
L 256.608 281.993093 
M 261.504 282.736742 
L 263.952 285.962686 
L 266.4 284.010441 
L 268.848 281.247532 
L 271.296 284.255718 
L 273.744 231.014471 
L 276.192 282.77898 
M 281.088 283.84756 
L 283.536 284.316248 
L 285.984 282.55798 
L 288.432 284.965361 
L 290.88 284.597528 
L 293.328 283.138083 
L 295.776 284.422341 
L 298.224 280.639243 
L 300.672 246.675916 
L 303.12 288.37464 
L 305.568 286.447338 
L 308.016 282.040569 
L 310.464 285.976737 
L 312.912 285.964764 
L 315.36 283.393754 
L 317.808 283.32067 
L 320.256 285.297027 
L 322.704 284.588631 
L 325.152 196.109028 
M 332.496 286.549523 
L 334.944 281.526816 
L 337.392 285.472546 
L 339.84 283.247003 
L 342.288 282.902201 
L 344.736 285.155098 
L 347.184 283.718851 
L 349.632 281.381229 
L 352.08 222.619152 
M 356.976 288.892799 
L 359.424 285.412432 
L 361.872 285.742601 
L 364.32 282.152399 
L 366.768 285.270919 
L 369.216 275.556837 
L 371.664 280.830476 
L 374.112 280.324123 
L 376.56 284.493513 
L 379.008 229.955037 
L 381.456 284.391162 
L 383.904 287.84035 
L 386.352 285.241486 
L 388.8 278.526528 
L 391.248 280.399785 
L 393.696 284.619395 
L 396.144 286.148515 
L 398.592 277.053614 
L 401.04 284.707778 
L 403.488 199.545079 
M 408.384 285.081681 
L 410.832 285.661867 
L 413.28 285.993283 
L 415.728 279.01143 
L 418.176 285.830568 
L 420.624 280.521759 
L 423.072 282.455629 
L 425.52 241.14062 
L 427.968 283.96812 
L 430.416 287.970139 
L 432.864 285.651557 
L 435.312 282.525554 
L 437.76 281.849917 
L 440.208 282.945104 
L 442.656 278.64027 
L 445.104 276.080983 
L 447.552 274.749416 
L 450 219.515099 
M 454.896 279.122428 
L 457.344 277.721601 
L 459.792 278.585644 
L 462.24 276.948435 
L 464.688 277.094189 
L 467.136 277.366239 
L 469.584 275.90272 
L 472.032 278.784361 
L 474.48 276.890899 
L 476.928 148.069666 
L 479.376 264.291934 
L 481.824 269.986703 
L 484.272 270.614864 
L 486.72 270.685287 
L 489.168 265.752709 
L 491.616 262.544559 
L 494.064 267.345019 
L 496.512 267.612497 
L 498.96 167.443868 
M 506.304 271.882243 
L 508.752 275.811011 
L 511.2 261.719677 
L 513.648 268.100808 
L 516.096 265.690184 
L 518.544 273.700957 
L 520.992 267.613328 
L 523.44 275.182186 
L 525.888 275.709824 
L 528.336 174.089151 
M 538.128 271.082471 
L 540.576 266.620909 
L 543.024 270.522074 
L 545.472 266.979431 
L 547.92 270.154406 
L 550.368 277.58225 
L 552.816 260.940858 
L 555.264 262.791666 
L 557.712 95.00136 
M 567.504 273.685077 
L 569.952 245.84139 
L 572.4 266.270703 
L 574.848 273.423502 
L 577.296 277.016199 
L 579.744 274.324212 
L 582.192 180.447334 
M 587.088 284.214479 
L 589.536 278.40497 
L 591.984 276.714548 
L 594.432 279.586544 
L 596.88 271.988669 
L 599.328 263.061804 
L 601.776 265.994827 
L 604.224 270.608461 
L 606.672 274.976901 
L 609.12 203.379145 
M 614.016 276.317448 
L 616.464 279.46615 
L 618.912 276.890733 
L 621.36 278.92421 
L 623.808 275.132798 
L 626.256 276.078156 
L 628.704 273.14214 
L 631.152 273.313751 
L 633.6 209.248269 
M 638.496 281.435938 
L 640.944 283.711285 
L 643.392 275.887921 
L 645.84 275.855328 
L 648.288 279.367623 
L 650.736 274.5946 
L 653.184 209.694675 
M 658.08 275.410918 
L 660.528 279.673596 
L 662.976 278.137575 
L 665.424 275.541788 
L 670.32 275.942879 
L 672.768 277.104914 
L 675.216 274.517441 
L 677.664 277.455786 
L 680.112 194.139073 
M 685.008 277.338884 
L 687.456 280.646559 
L 689.904 277.571774 
L 692.352 282.043728 
L 694.8 276.631237 
L 697.248 277.518228 
L 699.696 278.259466 
L 702.144 275.779998 
L 704.592 270.259751 
L 707.04 154.17118 
M 719.28 271.91284 
L 721.728 271.736656 
L 724.176 276.259828 
L 726.624 279.924944 
L 729.072 275.256601 
L 731.52 273.752258 
L 733.968 199.533772 
M 738.864 275.960756 
L 741.312 277.941021 
L 743.76 277.353352 
L 746.208 277.821624 
L 748.656 272.232616 
L 751.104 278.315838 
L 753.552 273.866 
L 756 281.538373 
L 758.448 270.181927 
L 760.896 225.691028 
M 765.792 278.341198 
L 768.24 282.061438 
L 768.24 282.061438 
" clip-path="url(#p24bc090239)" style="fill: none; stroke: #2457a7; stroke-width: 1.1; stroke-linecap: square"/>
   </g>
   <g id="line2d_26">
    <path d="M 95.04 223.373943 
L 97.488 267.795167 
L 99.936 151.972825 
L 102.384 174.996346 
L 104.832 214.998163 
L 107.28 238.373387 
L 109.728 246.255452 
L 112.176 255.386022 
L 114.624 248.078822 
L 117.072 244.605771 
L 119.52 201.858007 
L 121.968 233.131676 
L 124.416 255.50043 
L 126.864 252.06679 
L 129.312 259.825218 
L 131.76 263.943474 
L 134.208 263.459403 
L 136.656 267.394823 
L 139.104 267.041623 
L 141.552 271.41688 
L 144 219.930409 
L 146.448 232.908182 
L 148.896 250.022753 
L 151.344 270.845591 
L 153.792 268.817185 
L 156.24 267.804063 
L 158.688 268.53973 
L 161.136 267.173159 
L 163.584 260.225727 
L 166.032 267.456683 
L 168.48 225.780076 
L 170.928 239.101072 
L 173.376 245.106637 
L 175.824 263.929339 
L 178.272 222.233193 
L 183.168 267.087436 
L 185.616 267.425088 
L 188.064 265.982522 
L 190.512 266.076143 
L 192.96 267.479881 
L 195.408 217.620806 
L 197.856 226.875928 
L 200.304 244.913242 
L 202.752 264.222675 
L 205.2 267.585309 
L 207.648 262.736707 
L 210.096 266.076975 
L 212.544 263.005099 
L 214.992 269.003763 
L 217.44 269.502217 
L 219.888 226.959821 
L 222.336 244.230289 
L 224.784 240.743768 
L 227.232 256.60842 
L 229.68 269.746248 
L 232.128 267.372457 
L 234.576 262.104056 
L 237.024 271.978858 
L 239.472 267.954223 
L 241.92 261.890956 
L 244.368 222.565441 
L 246.816 237.327423 
L 249.264 249.266964 
L 251.712 268.463237 
L 254.16 211.916892 
L 256.608 230.325698 
M 261.504 266.217822 
L 263.952 265.390197 
L 266.4 267.84971 
L 268.848 265.52722 
L 271.296 267.792672 
L 273.744 214.797867 
L 276.192 228.521534 
M 281.088 266.688257 
L 283.536 268.685483 
L 285.984 267.323901 
L 288.432 269.253198 
L 290.88 269.69345 
L 293.328 267.296463 
L 295.776 267.421762 
L 298.224 265.06194 
L 300.672 225.153828 
L 303.12 247.565651 
L 305.568 268.150445 
L 308.016 265.57137 
L 310.464 270.883755 
L 312.912 271.232049 
L 315.36 267.270272 
L 317.808 268.578476 
L 320.256 269.614962 
L 322.704 268.459662 
L 325.152 180.404098 
M 332.496 267.389086 
L 334.944 265.145418 
L 337.392 269.432292 
L 339.84 267.333712 
L 342.288 267.401059 
L 344.736 264.909619 
L 347.184 261.879066 
L 349.632 264.711235 
L 352.08 205.940843 
M 356.976 256.473725 
L 359.424 268.855432 
L 361.872 269.7376 
L 364.32 267.126514 
L 366.768 270.02204 
L 369.216 258.881106 
L 371.664 257.638587 
L 374.112 264.489986 
L 376.56 269.228088 
L 379.008 213.151762 
L 381.456 226.415387 
L 383.904 249.809486 
L 386.352 268.488014 
L 388.8 261.793842 
L 391.248 262.318487 
L 393.696 268.540146 
L 396.144 270.653609 
L 398.592 260.241691 
L 401.04 267.036053 
L 403.488 174.686132 
M 408.384 234.215804 
L 410.832 254.264063 
L 413.28 267.561196 
L 415.728 262.644832 
L 418.176 262.168743 
L 420.624 264.890495 
L 423.072 265.312539 
L 425.52 225.046488 
L 427.968 236.759875 
L 432.864 269.163817 
L 435.312 267.508067 
L 437.76 266.399744 
L 440.208 267.067731 
L 442.656 262.556864 
L 445.104 259.375237 
L 447.552 255.138 
L 450 196.412092 
M 454.896 258.49656 
L 457.344 259.231645 
L 459.792 260.572193 
L 462.24 258.133133 
L 464.688 251.625622 
L 467.136 259.311049 
L 469.584 257.86815 
L 472.032 257.390149 
L 474.48 255.95648 
L 476.928 126.693996 
L 479.376 122.094497 
L 481.824 237.461286 
L 484.272 237.954253 
L 486.72 245.187371 
L 489.168 243.645613 
L 491.616 237.956997 
L 494.064 234.025568 
L 496.512 227.957811 
L 498.96 128.646158 
M 506.304 223.274252 
L 508.752 235.241979 
L 511.2 235.460069 
L 513.648 248.592741 
L 516.096 243.714291 
L 518.544 248.097696 
L 520.992 238.940769 
L 523.44 252.055482 
L 525.888 258.331601 
L 528.336 153.613692 
M 538.128 251.467647 
L 540.576 248.142844 
L 543.024 251.803885 
L 545.472 245.870324 
L 547.92 243.85281 
L 550.368 257.736947 
L 552.816 241.812515 
L 555.264 234.161843 
L 557.712 56.850933 
M 567.504 235.90107 
L 569.952 210.904767 
L 572.4 223.067969 
L 574.848 237.01089 
L 577.296 252.261016 
L 579.744 256.342356 
L 582.192 155.95913 
M 587.088 221.847234 
L 589.536 238.183817 
L 591.984 245.50989 
L 594.432 260.453628 
L 596.88 254.356021 
L 599.328 244.285663 
L 601.776 241.431045 
L 604.224 241.316305 
L 606.672 252.242641 
L 609.12 180.253772 
M 614.016 240.464734 
L 616.464 245.165337 
L 618.912 254.709222 
L 621.36 260.297315 
L 623.808 246.286797 
L 626.256 255.649592 
L 628.704 254.55956 
L 631.152 251.800642 
L 633.6 184.318649 
M 638.496 242.455392 
L 640.944 253.539205 
L 643.392 257.726388 
L 645.84 257.449016 
L 648.288 261.636199 
L 650.736 253.692275 
L 653.184 187.844413 
M 658.08 242.420305 
L 660.528 258.125733 
L 662.976 260.458866 
L 665.424 257.034788 
L 667.872 258.408842 
L 670.32 256.558284 
L 672.768 258.745247 
L 675.216 256.773047 
L 677.664 258.990525 
L 680.112 177.846474 
M 685.008 227.624482 
L 687.456 237.323349 
L 689.904 253.396279 
L 692.352 258.806359 
L 694.8 259.142597 
L 697.248 259.745315 
L 699.696 259.924909 
L 702.144 257.22519 
L 704.592 250.489861 
L 707.04 128.623875 
M 719.28 252.747997 
L 721.728 252.906638 
L 724.176 258.486167 
L 726.624 260.667061 
L 729.072 257.892844 
L 731.52 254.703983 
L 733.968 177.147973 
M 738.864 227.351101 
L 743.76 253.827053 
L 746.208 260.344375 
L 748.656 254.922322 
L 751.104 260.613183 
L 753.552 251.107379 
L 756 264.508361 
L 758.448 252.7687 
L 760.896 202.715565 
M 765.792 243.589656 
L 768.24 250.893115 
L 768.24 250.893115 
" clip-path="url(#p24bc090239)" style="fill: none; stroke: #c15f12; stroke-opacity: 0.8; stroke-width: 1.1; stroke-linecap: square"/>
   </g>
   <g id="patch_3">
    <path d="M 95.04 303.264 
L 95.04 44.928 
" style="fill: none; stroke: #000000; stroke-width: 0.8; stroke-linejoin: miter; stroke-linecap: square"/>
   </g>
   <g id="patch_4">
    <path d="M 95.04 303.264 
L 768.24 303.264 
" style="fill: none; stroke: #000000; stroke-width: 0.8; stroke-linejoin: miter; stroke-linecap: square"/>
   </g>
   <g id="text_15">
    <!-- Processing time and result latency -->
    <g transform="translate(284.559141 38.928) scale(0.15 -0.15)">
     <defs>
      <path id="DejaVuSans-Bold-33" d="M 588 4666 
L 2584 4666 
Q 3475 4666 3951 4270 
Q 4428 3875 4428 3144 
Q 4428 2409 3951 2014 
Q 3475 1619 2584 1619 
L 1791 1619 
L 1791 0 
L 588 0 
L 588 4666 
z
M 1791 3794 
L 1791 2491 
L 2456 2491 
Q 2806 2491 2997 2661 
Q 3188 2831 3188 3144 
Q 3188 3456 2997 3625 
Q 2806 3794 2456 3794 
L 1791 3794 
z
" transform="scale(0.015625)"/>
      <path id="DejaVuSans-Bold-55" d="M 3138 2547 
Q 2991 2616 2845 2648 
Q 2700 2681 2553 2681 
Q 2122 2681 1889 2404 
Q 1656 2128 1656 1613 
L 1656 0 
L 538 0 
L 538 3500 
L 1656 3500 
L 1656 2925 
Q 1872 3269 2151 3426 
Q 2431 3584 2822 3584 
Q 2878 3584 2943 3579 
Q 3009 3575 3134 3559 
L 3138 2547 
z
" transform="scale(0.015625)"/>
      <path id="DejaVuSans-Bold-52" d="M 2203 2784 
Q 1831 2784 1636 2517 
Q 1441 2250 1441 1747 
Q 1441 1244 1636 976 
Q 1831 709 2203 709 
Q 2569 709 2762 976 
Q 2956 1244 2956 1747 
Q 2956 2250 2762 2517 
Q 2569 2784 2203 2784 
z
M 2203 3584 
Q 3106 3584 3614 3096 
Q 4122 2609 4122 1747 
Q 4122 884 3614 396 
Q 3106 -91 2203 -91 
Q 1297 -91 786 396 
Q 275 884 275 1747 
Q 275 2609 786 3096 
Q 1297 3584 2203 3584 
z
" transform="scale(0.015625)"/>
      <path id="DejaVuSans-Bold-46" d="M 3366 3391 
L 3366 2478 
Q 3138 2634 2908 2709 
Q 2678 2784 2431 2784 
Q 1963 2784 1702 2511 
Q 1441 2238 1441 1747 
Q 1441 1256 1702 982 
Q 1963 709 2431 709 
Q 2694 709 2930 787 
Q 3166 866 3366 1019 
L 3366 103 
Q 3103 6 2833 -42 
Q 2563 -91 2291 -91 
Q 1344 -91 809 395 
Q 275 881 275 1747 
Q 275 2613 809 3098 
Q 1344 3584 2291 3584 
Q 2566 3584 2833 3536 
Q 3100 3488 3366 3391 
z
" transform="scale(0.015625)"/>
      <path id="DejaVuSans-Bold-48" d="M 4031 1759 
L 4031 1441 
L 1416 1441 
Q 1456 1047 1700 850 
Q 1944 653 2381 653 
Q 2734 653 3104 758 
Q 3475 863 3866 1075 
L 3866 213 
Q 3469 63 3072 -14 
Q 2675 -91 2278 -91 
Q 1328 -91 801 392 
Q 275 875 275 1747 
Q 275 2603 792 3093 
Q 1309 3584 2216 3584 
Q 3041 3584 3536 3087 
Q 4031 2591 4031 1759 
z
M 2881 2131 
Q 2881 2450 2695 2645 
Q 2509 2841 2209 2841 
Q 1884 2841 1681 2658 
Q 1478 2475 1428 2131 
L 2881 2131 
z
" transform="scale(0.015625)"/>
      <path id="DejaVuSans-Bold-56" d="M 3272 3391 
L 3272 2541 
Q 2913 2691 2578 2766 
Q 2244 2841 1947 2841 
Q 1628 2841 1473 2761 
Q 1319 2681 1319 2516 
Q 1319 2381 1436 2309 
Q 1553 2238 1856 2203 
L 2053 2175 
Q 2913 2066 3209 1816 
Q 3506 1566 3506 1031 
Q 3506 472 3093 190 
Q 2681 -91 1863 -91 
Q 1516 -91 1145 -36 
Q 775 19 384 128 
L 384 978 
Q 719 816 1070 734 
Q 1422 653 1784 653 
Q 2113 653 2278 743 
Q 2444 834 2444 1013 
Q 2444 1163 2330 1236 
Q 2216 1309 1875 1350 
L 1678 1375 
Q 931 1469 631 1722 
Q 331 1975 331 2491 
Q 331 3047 712 3315 
Q 1094 3584 1881 3584 
Q 2191 3584 2531 3537 
Q 2872 3491 3272 3391 
z
" transform="scale(0.015625)"/>
      <path id="DejaVuSans-Bold-4c" d="M 538 3500 
L 1656 3500 
L 1656 0 
L 538 0 
L 538 3500 
z
M 538 4863 
L 1656 4863 
L 1656 3950 
L 538 3950 
L 538 4863 
z
" transform="scale(0.015625)"/>
      <path id="DejaVuSans-Bold-51" d="M 4056 2131 
L 4056 0 
L 2931 0 
L 2931 347 
L 2931 1631 
Q 2931 2084 2911 2256 
Q 2891 2428 2841 2509 
Q 2775 2619 2662 2680 
Q 2550 2741 2406 2741 
Q 2056 2741 1856 2470 
Q 1656 2200 1656 1722 
L 1656 0 
L 538 0 
L 538 3500 
L 1656 3500 
L 1656 2988 
Q 1909 3294 2193 3439 
Q 2478 3584 2822 3584 
Q 3428 3584 3742 3212 
Q 4056 2841 4056 2131 
z
" transform="scale(0.015625)"/>
      <path id="DejaVuSans-Bold-4a" d="M 2919 594 
Q 2688 288 2409 144 
Q 2131 0 1766 0 
Q 1125 0 706 504 
Q 288 1009 288 1791 
Q 288 2575 706 3076 
Q 1125 3578 1766 3578 
Q 2131 3578 2409 3434 
Q 2688 3291 2919 2981 
L 2919 3500 
L 4044 3500 
L 4044 353 
Q 4044 -491 3511 -936 
Q 2978 -1381 1966 -1381 
Q 1638 -1381 1331 -1331 
Q 1025 -1281 716 -1178 
L 716 -306 
Q 1009 -475 1290 -558 
Q 1572 -641 1856 -641 
Q 2406 -641 2662 -400 
Q 2919 -159 2919 353 
L 2919 594 
z
M 2181 2772 
Q 1834 2772 1640 2515 
Q 1447 2259 1447 1791 
Q 1447 1309 1634 1061 
Q 1822 813 2181 813 
Q 2531 813 2725 1069 
Q 2919 1325 2919 1791 
Q 2919 2259 2725 2515 
Q 2531 2772 2181 2772 
z
" transform="scale(0.015625)"/>
      <path id="DejaVuSans-Bold-3" transform="scale(0.015625)"/>
      <path id="DejaVuSans-Bold-57" d="M 1759 4494 
L 1759 3500 
L 2913 3500 
L 2913 2700 
L 1759 2700 
L 1759 1216 
Q 1759 972 1856 886 
Q 1953 800 2241 800 
L 2816 800 
L 2816 0 
L 1856 0 
Q 1194 0 917 276 
Q 641 553 641 1216 
L 641 2700 
L 84 2700 
L 84 3500 
L 641 3500 
L 641 4494 
L 1759 4494 
z
" transform="scale(0.015625)"/>
      <path id="DejaVuSans-Bold-50" d="M 3781 2919 
Q 3994 3244 4286 3414 
Q 4578 3584 4928 3584 
Q 5531 3584 5847 3212 
Q 6163 2841 6163 2131 
L 6163 0 
L 5038 0 
L 5038 1825 
Q 5041 1866 5042 1909 
Q 5044 1953 5044 2034 
Q 5044 2406 4934 2573 
Q 4825 2741 4581 2741 
Q 4263 2741 4089 2478 
Q 3916 2216 3909 1719 
L 3909 0 
L 2784 0 
L 2784 1825 
Q 2784 2406 2684 2573 
Q 2584 2741 2328 2741 
Q 2006 2741 1831 2477 
Q 1656 2213 1656 1722 
L 1656 0 
L 531 0 
L 531 3500 
L 1656 3500 
L 1656 2988 
Q 1863 3284 2130 3434 
Q 2397 3584 2719 3584 
Q 3081 3584 3359 3409 
Q 3638 3234 3781 2919 
z
" transform="scale(0.015625)"/>
      <path id="DejaVuSans-Bold-44" d="M 2106 1575 
Q 1756 1575 1579 1456 
Q 1403 1338 1403 1106 
Q 1403 894 1545 773 
Q 1688 653 1941 653 
Q 2256 653 2472 879 
Q 2688 1106 2688 1447 
L 2688 1575 
L 2106 1575 
z
M 3816 1997 
L 3816 0 
L 2688 0 
L 2688 519 
Q 2463 200 2181 54 
Q 1900 -91 1497 -91 
Q 953 -91 614 226 
Q 275 544 275 1050 
Q 275 1666 698 1953 
Q 1122 2241 2028 2241 
L 2688 2241 
L 2688 2328 
Q 2688 2594 2478 2717 
Q 2269 2841 1825 2841 
Q 1466 2841 1156 2769 
Q 847 2697 581 2553 
L 581 3406 
Q 941 3494 1303 3539 
Q 1666 3584 2028 3584 
Q 2975 3584 3395 3211 
Q 3816 2838 3816 1997 
z
" transform="scale(0.015625)"/>
      <path id="DejaVuSans-Bold-47" d="M 2919 2988 
L 2919 4863 
L 4044 4863 
L 4044 0 
L 2919 0 
L 2919 506 
Q 2688 197 2409 53 
Q 2131 -91 1766 -91 
Q 1119 -91 703 423 
Q 288 938 288 1747 
Q 288 2556 703 3070 
Q 1119 3584 1766 3584 
Q 2128 3584 2408 3439 
Q 2688 3294 2919 2988 
z
M 2181 722 
Q 2541 722 2730 984 
Q 2919 1247 2919 1747 
Q 2919 2247 2730 2509 
Q 2541 2772 2181 2772 
Q 1825 2772 1636 2509 
Q 1447 2247 1447 1747 
Q 1447 1247 1636 984 
Q 1825 722 2181 722 
z
" transform="scale(0.015625)"/>
      <path id="DejaVuSans-Bold-58" d="M 500 1363 
L 500 3500 
L 1625 3500 
L 1625 3150 
Q 1625 2866 1622 2436 
Q 1619 2006 1619 1863 
Q 1619 1441 1641 1255 
Q 1663 1069 1716 984 
Q 1784 875 1895 815 
Q 2006 756 2150 756 
Q 2500 756 2700 1025 
Q 2900 1294 2900 1772 
L 2900 3500 
L 4019 3500 
L 4019 0 
L 2900 0 
L 2900 506 
Q 2647 200 2364 54 
Q 2081 -91 1741 -91 
Q 1134 -91 817 281 
Q 500 653 500 1363 
z
" transform="scale(0.015625)"/>
      <path id="DejaVuSans-Bold-4f" d="M 538 4863 
L 1656 4863 
L 1656 0 
L 538 0 
L 538 4863 
z
" transform="scale(0.015625)"/>
      <path id="DejaVuSans-Bold-5c" d="M 78 3500 
L 1197 3500 
L 2138 1125 
L 2938 3500 
L 4056 3500 
L 2584 -331 
Q 2363 -916 2067 -1148 
Q 1772 -1381 1288 -1381 
L 641 -1381 
L 641 -647 
L 991 -647 
Q 1275 -647 1404 -556 
Q 1534 -466 1606 -231 
L 1638 -134 
L 78 3500 
z
" transform="scale(0.015625)"/>
     </defs>
     <use xlink:href="#DejaVuSans-Bold-33"/>
     <use xlink:href="#DejaVuSans-Bold-55" transform="translate(73.296875 0)"/>
     <use xlink:href="#DejaVuSans-Bold-52" transform="translate(122.609375 0)"/>
     <use xlink:href="#DejaVuSans-Bold-46" transform="translate(191.3125 0)"/>
     <use xlink:href="#DejaVuSans-Bold-48" transform="translate(250.59375 0)"/>
     <use xlink:href="#DejaVuSans-Bold-56" transform="translate(318.421875 0)"/>
     <use xlink:href="#DejaVuSans-Bold-56" transform="translate(377.9375 0)"/>
     <use xlink:href="#DejaVuSans-Bold-4c" transform="translate(437.453125 0)"/>
     <use xlink:href="#DejaVuSans-Bold-51" transform="translate(471.734375 0)"/>
     <use xlink:href="#DejaVuSans-Bold-4a" transform="translate(542.921875 0)"/>
     <use xlink:href="#DejaVuSans-Bold-3" transform="translate(614.5 0)"/>
     <use xlink:href="#DejaVuSans-Bold-57" transform="translate(649.3125 0)"/>
     <use xlink:href="#DejaVuSans-Bold-4c" transform="translate(697.109375 0)"/>
     <use xlink:href="#DejaVuSans-Bold-50" transform="translate(731.390625 0)"/>
     <use xlink:href="#DejaVuSans-Bold-48" transform="translate(835.59375 0)"/>
     <use xlink:href="#DejaVuSans-Bold-3" transform="translate(903.421875 0)"/>
     <use xlink:href="#DejaVuSans-Bold-44" transform="translate(938.234375 0)"/>
     <use xlink:href="#DejaVuSans-Bold-51" transform="translate(1005.71875 0)"/>
     <use xlink:href="#DejaVuSans-Bold-47" transform="translate(1076.90625 0)"/>
     <use xlink:href="#DejaVuSans-Bold-3" transform="translate(1148.484375 0)"/>
     <use xlink:href="#DejaVuSans-Bold-55" transform="translate(1183.296875 0)"/>
     <use xlink:href="#DejaVuSans-Bold-48" transform="translate(1232.609375 0)"/>
     <use xlink:href="#DejaVuSans-Bold-56" transform="translate(1300.4375 0)"/>
     <use xlink:href="#DejaVuSans-Bold-58" transform="translate(1359.953125 0)"/>
     <use xlink:href="#DejaVuSans-Bold-4f" transform="translate(1431.140625 0)"/>
     <use xlink:href="#DejaVuSans-Bold-57" transform="translate(1465.421875 0)"/>
     <use xlink:href="#DejaVuSans-Bold-3" transform="translate(1513.21875 0)"/>
     <use xlink:href="#DejaVuSans-Bold-4f" transform="translate(1548.03125 0)"/>
     <use xlink:href="#DejaVuSans-Bold-44" transform="translate(1582.3125 0)"/>
     <use xlink:href="#DejaVuSans-Bold-57" transform="translate(1649.796875 0)"/>
     <use xlink:href="#DejaVuSans-Bold-48" transform="translate(1697.59375 0)"/>
     <use xlink:href="#DejaVuSans-Bold-51" transform="translate(1765.421875 0)"/>
     <use xlink:href="#DejaVuSans-Bold-46" transform="translate(1836.609375 0)"/>
     <use xlink:href="#DejaVuSans-Bold-5c" transform="translate(1895.890625 0)"/>
    </g>
   </g>
   <g id="legend_1">
    <g id="line2d_27">
     <path d="M 642.66125 59.336281 
L 653.66125 59.336281 
L 664.66125 59.336281 
" style="fill: none; stroke: #2457a7; stroke-width: 1.1; stroke-linecap: square"/>
    </g>
    <g id="text_16">
     <!-- Fast processing -->
     <g transform="translate(673.46125 63.186281) scale(0.11 -0.11)">
      <defs>
       <path id="DejaVuSans-29" d="M 628 4666 
L 3309 4666 
L 3309 4134 
L 1259 4134 
L 1259 2759 
L 3109 2759 
L 3109 2228 
L 1259 2228 
L 1259 0 
L 628 0 
L 628 4666 
z
" transform="scale(0.015625)"/>
       <path id="DejaVuSans-44" d="M 2194 1759 
Q 1497 1759 1228 1600 
Q 959 1441 959 1056 
Q 959 750 1161 570 
Q 1363 391 1709 391 
Q 2188 391 2477 730 
Q 2766 1069 2766 1631 
L 2766 1759 
L 2194 1759 
z
M 3341 1997 
L 3341 0 
L 2766 0 
L 2766 531 
Q 2569 213 2275 61 
Q 1981 -91 1556 -91 
Q 1019 -91 701 211 
Q 384 513 384 1019 
Q 384 1609 779 1909 
Q 1175 2209 1959 2209 
L 2766 2209 
L 2766 2266 
Q 2766 2663 2505 2880 
Q 2244 3097 1772 3097 
Q 1472 3097 1187 3025 
Q 903 2953 641 2809 
L 641 3341 
Q 956 3463 1253 3523 
Q 1550 3584 1831 3584 
Q 2591 3584 2966 3190 
Q 3341 2797 3341 1997 
z
" transform="scale(0.015625)"/>
       <path id="DejaVuSans-53" d="M 1159 525 
L 1159 -1331 
L 581 -1331 
L 581 3500 
L 1159 3500 
L 1159 2969 
Q 1341 3281 1617 3432 
Q 1894 3584 2278 3584 
Q 2916 3584 3314 3078 
Q 3713 2572 3713 1747 
Q 3713 922 3314 415 
Q 2916 -91 2278 -91 
Q 1894 -91 1617 61 
Q 1341 213 1159 525 
z
M 3116 1747 
Q 3116 2381 2855 2742 
Q 2594 3103 2138 3103 
Q 1681 3103 1420 2742 
Q 1159 2381 1159 1747 
Q 1159 1113 1420 752 
Q 1681 391 2138 391 
Q 2594 391 2855 752 
Q 3116 1113 3116 1747 
z
" transform="scale(0.015625)"/>
       <path id="DejaVuSans-51" d="M 3513 2113 
L 3513 0 
L 2938 0 
L 2938 2094 
Q 2938 2591 2744 2837 
Q 2550 3084 2163 3084 
Q 1697 3084 1428 2787 
Q 1159 2491 1159 1978 
L 1159 0 
L 581 0 
L 581 3500 
L 1159 3500 
L 1159 2956 
Q 1366 3272 1645 3428 
Q 1925 3584 2291 3584 
Q 2894 3584 3203 3211 
Q 3513 2838 3513 2113 
z
" transform="scale(0.015625)"/>
       <path id="DejaVuSans-4a" d="M 2906 1791 
Q 2906 2416 2648 2759 
Q 2391 3103 1925 3103 
Q 1463 3103 1205 2759 
Q 947 2416 947 1791 
Q 947 1169 1205 825 
Q 1463 481 1925 481 
Q 2391 481 2648 825 
Q 2906 1169 2906 1791 
z
M 3481 434 
Q 3481 -459 3084 -895 
Q 2688 -1331 1869 -1331 
Q 1566 -1331 1297 -1286 
Q 1028 -1241 775 -1147 
L 775 -588 
Q 1028 -725 1275 -790 
Q 1522 -856 1778 -856 
Q 2344 -856 2625 -561 
Q 2906 -266 2906 331 
L 2906 616 
Q 2728 306 2450 153 
Q 2172 0 1784 0 
Q 1141 0 747 490 
Q 353 981 353 1791 
Q 353 2603 747 3093 
Q 1141 3584 1784 3584 
Q 2172 3584 2450 3431 
Q 2728 3278 2906 2969 
L 2906 3500 
L 3481 3500 
L 3481 434 
z
" transform="scale(0.015625)"/>
      </defs>
      <use xlink:href="#DejaVuSans-29"/>
      <use xlink:href="#DejaVuSans-44" transform="translate(48.34375 0)"/>
      <use xlink:href="#DejaVuSans-56" transform="translate(109.625 0)"/>
      <use xlink:href="#DejaVuSans-57" transform="translate(161.71875 0)"/>
      <use xlink:href="#DejaVuSans-3" transform="translate(200.921875 0)"/>
      <use xlink:href="#DejaVuSans-53" transform="translate(232.703125 0)"/>
      <use xlink:href="#DejaVuSans-55" transform="translate(296.1875 0)"/>
      <use xlink:href="#DejaVuSans-52" transform="translate(335.09375 0)"/>
      <use xlink:href="#DejaVuSans-46" transform="translate(396.28125 0)"/>
      <use xlink:href="#DejaVuSans-48" transform="translate(451.265625 0)"/>
      <use xlink:href="#DejaVuSans-56" transform="translate(512.796875 0)"/>
      <use xlink:href="#DejaVuSans-56" transform="translate(564.890625 0)"/>
      <use xlink:href="#DejaVuSans-4c" transform="translate(616.984375 0)"/>
      <use xlink:href="#DejaVuSans-51" transform="translate(644.765625 0)"/>
      <use xlink:href="#DejaVuSans-4a" transform="translate(708.140625 0)"/>
     </g>
    </g>
    <g id="line2d_28">
     <path d="M 642.66125 75.837141 
L 653.66125 75.837141 
L 664.66125 75.837141 
" style="fill: none; stroke: #c15f12; stroke-opacity: 0.8; stroke-width: 1.1; stroke-linecap: square"/>
    </g>
    <g id="text_17">
     <!-- Frame to result -->
     <g transform="translate(673.46125 79.687141) scale(0.11 -0.11)">
      <defs>
       <path id="DejaVuSans-4f" d="M 603 4863 
L 1178 4863 
L 1178 0 
L 603 0 
L 603 4863 
z
" transform="scale(0.015625)"/>
      </defs>
      <use xlink:href="#DejaVuSans-29"/>
      <use xlink:href="#DejaVuSans-55" transform="translate(50.234375 0)"/>
      <use xlink:href="#DejaVuSans-44" transform="translate(91.34375 0)"/>
      <use xlink:href="#DejaVuSans-50" transform="translate(152.625 0)"/>
      <use xlink:href="#DejaVuSans-48" transform="translate(250.03125 0)"/>
      <use xlink:href="#DejaVuSans-3" transform="translate(311.5625 0)"/>
      <use xlink:href="#DejaVuSans-57" transform="translate(343.34375 0)"/>
      <use xlink:href="#DejaVuSans-52" transform="translate(382.546875 0)"/>
      <use xlink:href="#DejaVuSans-3" transform="translate(443.734375 0)"/>
      <use xlink:href="#DejaVuSans-55" transform="translate(475.515625 0)"/>
      <use xlink:href="#DejaVuSans-48" transform="translate(514.421875 0)"/>
      <use xlink:href="#DejaVuSans-56" transform="translate(575.953125 0)"/>
      <use xlink:href="#DejaVuSans-58" transform="translate(628.046875 0)"/>
      <use xlink:href="#DejaVuSans-4f" transform="translate(691.421875 0)"/>
      <use xlink:href="#DejaVuSans-57" transform="translate(719.203125 0)"/>
     </g>
    </g>
   </g>
  </g>
  <g id="text_18">
   <!-- Latency starts after decode/playback scheduling; decoder and display time are excluded. -->
   <g style="fill: #555555" transform="translate(63.36 361.296) scale(0.09 -0.09)">
    <defs>
     <path id="DejaVuSans-2f" d="M 628 4666 
L 1259 4666 
L 1259 531 
L 3531 531 
L 3531 0 
L 628 0 
L 628 4666 
z
" transform="scale(0.015625)"/>
     <path id="DejaVuSans-5c" d="M 2059 -325 
Q 1816 -950 1584 -1140 
Q 1353 -1331 966 -1331 
L 506 -1331 
L 506 -850 
L 844 -850 
Q 1081 -850 1212 -737 
Q 1344 -625 1503 -206 
L 1606 56 
L 191 3500 
L 800 3500 
L 1894 763 
L 2988 3500 
L 3597 3500 
L 2059 -325 
z
" transform="scale(0.015625)"/>
     <path id="DejaVuSans-49" d="M 2375 4863 
L 2375 4384 
L 1825 4384 
Q 1516 4384 1395 4259 
Q 1275 4134 1275 3809 
L 1275 3500 
L 2222 3500 
L 2222 3053 
L 1275 3053 
L 1275 0 
L 697 0 
L 697 3053 
L 147 3053 
L 147 3500 
L 697 3500 
L 697 3744 
Q 697 4328 969 4595 
Q 1241 4863 1831 4863 
L 2375 4863 
z
" transform="scale(0.015625)"/>
     <path id="DejaVuSans-12" d="M 1625 4666 
L 2156 4666 
L 531 -594 
L 0 -594 
L 1625 4666 
z
" transform="scale(0.015625)"/>
     <path id="DejaVuSans-45" d="M 3116 1747 
Q 3116 2381 2855 2742 
Q 2594 3103 2138 3103 
Q 1681 3103 1420 2742 
Q 1159 2381 1159 1747 
Q 1159 1113 1420 752 
Q 1681 391 2138 391 
Q 2594 391 2855 752 
Q 3116 1113 3116 1747 
z
M 1159 2969 
Q 1341 3281 1617 3432 
Q 1894 3584 2278 3584 
Q 2916 3584 3314 3078 
Q 3713 2572 3713 1747 
Q 3713 922 3314 415 
Q 2916 -91 2278 -91 
Q 1894 -91 1617 61 
Q 1341 213 1159 525 
L 1159 0 
L 581 0 
L 581 4863 
L 1159 4863 
L 1159 2969 
z
" transform="scale(0.015625)"/>
     <path id="DejaVuSans-4e" d="M 581 4863 
L 1159 4863 
L 1159 1991 
L 2875 3500 
L 3609 3500 
L 1753 1863 
L 3688 0 
L 2938 0 
L 1159 1709 
L 1159 0 
L 581 0 
L 581 4863 
z
" transform="scale(0.015625)"/>
     <path id="DejaVuSans-4b" d="M 3513 2113 
L 3513 0 
L 2938 0 
L 2938 2094 
Q 2938 2591 2744 2837 
Q 2550 3084 2163 3084 
Q 1697 3084 1428 2787 
Q 1159 2491 1159 1978 
L 1159 0 
L 581 0 
L 581 4863 
L 1159 4863 
L 1159 2956 
Q 1366 3272 1645 3428 
Q 1925 3584 2291 3584 
Q 2894 3584 3203 3211 
Q 3513 2838 3513 2113 
z
" transform="scale(0.015625)"/>
     <path id="DejaVuSans-1e" d="M 750 3309 
L 1409 3309 
L 1409 2516 
L 750 2516 
L 750 3309 
z
M 750 794 
L 1409 794 
L 1409 256 
L 897 -744 
L 494 -744 
L 750 256 
L 750 794 
z
" transform="scale(0.015625)"/>
     <path id="DejaVuSans-5b" d="M 3513 3500 
L 2247 1797 
L 3578 0 
L 2900 0 
L 1881 1375 
L 863 0 
L 184 0 
L 1544 1831 
L 300 3500 
L 978 3500 
L 1906 2253 
L 2834 3500 
L 3513 3500 
z
" transform="scale(0.015625)"/>
     <path id="DejaVuSans-11" d="M 684 794 
L 1344 794 
L 1344 0 
L 684 0 
L 684 794 
z
" transform="scale(0.015625)"/>
    </defs>
    <use xlink:href="#DejaVuSans-2f"/>
    <use xlink:href="#DejaVuSans-44" transform="translate(55.71875 0)"/>
    <use xlink:href="#DejaVuSans-57" transform="translate(117 0)"/>
    <use xlink:href="#DejaVuSans-48" transform="translate(156.203125 0)"/>
    <use xlink:href="#DejaVuSans-51" transform="translate(217.734375 0)"/>
    <use xlink:href="#DejaVuSans-46" transform="translate(281.109375 0)"/>
    <use xlink:href="#DejaVuSans-5c" transform="translate(336.09375 0)"/>
    <use xlink:href="#DejaVuSans-3" transform="translate(395.28125 0)"/>
    <use xlink:href="#DejaVuSans-56" transform="translate(427.0625 0)"/>
    <use xlink:href="#DejaVuSans-57" transform="translate(479.15625 0)"/>
    <use xlink:href="#DejaVuSans-44" transform="translate(518.359375 0)"/>
    <use xlink:href="#DejaVuSans-55" transform="translate(579.640625 0)"/>
    <use xlink:href="#DejaVuSans-57" transform="translate(620.75 0)"/>
    <use xlink:href="#DejaVuSans-56" transform="translate(659.953125 0)"/>
    <use xlink:href="#DejaVuSans-3" transform="translate(712.046875 0)"/>
    <use xlink:href="#DejaVuSans-44" transform="translate(743.828125 0)"/>
    <use xlink:href="#DejaVuSans-49" transform="translate(805.109375 0)"/>
    <use xlink:href="#DejaVuSans-57" transform="translate(838.5625 0)"/>
    <use xlink:href="#DejaVuSans-48" transform="translate(877.765625 0)"/>
    <use xlink:href="#DejaVuSans-55" transform="translate(939.296875 0)"/>
    <use xlink:href="#DejaVuSans-3" transform="translate(980.40625 0)"/>
    <use xlink:href="#DejaVuSans-47" transform="translate(1012.1875 0)"/>
    <use xlink:href="#DejaVuSans-48" transform="translate(1075.671875 0)"/>
    <use xlink:href="#DejaVuSans-46" transform="translate(1137.203125 0)"/>
    <use xlink:href="#DejaVuSans-52" transform="translate(1192.1875 0)"/>
    <use xlink:href="#DejaVuSans-47" transform="translate(1253.375 0)"/>
    <use xlink:href="#DejaVuSans-48" transform="translate(1316.859375 0)"/>
    <use xlink:href="#DejaVuSans-12" transform="translate(1378.390625 0)"/>
    <use xlink:href="#DejaVuSans-53" transform="translate(1412.078125 0)"/>
    <use xlink:href="#DejaVuSans-4f" transform="translate(1475.5625 0)"/>
    <use xlink:href="#DejaVuSans-44" transform="translate(1503.34375 0)"/>
    <use xlink:href="#DejaVuSans-5c" transform="translate(1564.625 0)"/>
    <use xlink:href="#DejaVuSans-45" transform="translate(1623.8125 0)"/>
    <use xlink:href="#DejaVuSans-44" transform="translate(1687.296875 0)"/>
    <use xlink:href="#DejaVuSans-46" transform="translate(1748.578125 0)"/>
    <use xlink:href="#DejaVuSans-4e" transform="translate(1803.5625 0)"/>
    <use xlink:href="#DejaVuSans-3" transform="translate(1861.46875 0)"/>
    <use xlink:href="#DejaVuSans-56" transform="translate(1893.25 0)"/>
    <use xlink:href="#DejaVuSans-46" transform="translate(1945.34375 0)"/>
    <use xlink:href="#DejaVuSans-4b" transform="translate(2000.328125 0)"/>
    <use xlink:href="#DejaVuSans-48" transform="translate(2063.703125 0)"/>
    <use xlink:href="#DejaVuSans-47" transform="translate(2125.234375 0)"/>
    <use xlink:href="#DejaVuSans-58" transform="translate(2188.71875 0)"/>
    <use xlink:href="#DejaVuSans-4f" transform="translate(2252.09375 0)"/>
    <use xlink:href="#DejaVuSans-4c" transform="translate(2279.875 0)"/>
    <use xlink:href="#DejaVuSans-51" transform="translate(2307.65625 0)"/>
    <use xlink:href="#DejaVuSans-4a" transform="translate(2371.03125 0)"/>
    <use xlink:href="#DejaVuSans-1e" transform="translate(2434.515625 0)"/>
    <use xlink:href="#DejaVuSans-3" transform="translate(2468.203125 0)"/>
    <use xlink:href="#DejaVuSans-47" transform="translate(2499.984375 0)"/>
    <use xlink:href="#DejaVuSans-48" transform="translate(2563.46875 0)"/>
    <use xlink:href="#DejaVuSans-46" transform="translate(2625 0)"/>
    <use xlink:href="#DejaVuSans-52" transform="translate(2679.984375 0)"/>
    <use xlink:href="#DejaVuSans-47" transform="translate(2741.171875 0)"/>
    <use xlink:href="#DejaVuSans-48" transform="translate(2804.65625 0)"/>
    <use xlink:href="#DejaVuSans-55" transform="translate(2866.1875 0)"/>
    <use xlink:href="#DejaVuSans-3" transform="translate(2907.296875 0)"/>
    <use xlink:href="#DejaVuSans-44" transform="translate(2939.078125 0)"/>
    <use xlink:href="#DejaVuSans-51" transform="translate(3000.359375 0)"/>
    <use xlink:href="#DejaVuSans-47" transform="translate(3063.734375 0)"/>
    <use xlink:href="#DejaVuSans-3" transform="translate(3127.21875 0)"/>
    <use xlink:href="#DejaVuSans-47" transform="translate(3159 0)"/>
    <use xlink:href="#DejaVuSans-4c" transform="translate(3222.484375 0)"/>
    <use xlink:href="#DejaVuSans-56" transform="translate(3250.265625 0)"/>
    <use xlink:href="#DejaVuSans-53" transform="translate(3302.359375 0)"/>
    <use xlink:href="#DejaVuSans-4f" transform="translate(3365.84375 0)"/>
    <use xlink:href="#DejaVuSans-44" transform="translate(3393.625 0)"/>
    <use xlink:href="#DejaVuSans-5c" transform="translate(3454.90625 0)"/>
    <use xlink:href="#DejaVuSans-3" transform="translate(3514.09375 0)"/>
    <use xlink:href="#DejaVuSans-57" transform="translate(3545.875 0)"/>
    <use xlink:href="#DejaVuSans-4c" transform="translate(3585.078125 0)"/>
    <use xlink:href="#DejaVuSans-50" transform="translate(3612.859375 0)"/>
    <use xlink:href="#DejaVuSans-48" transform="translate(3710.265625 0)"/>
    <use xlink:href="#DejaVuSans-3" transform="translate(3771.796875 0)"/>
    <use xlink:href="#DejaVuSans-44" transform="translate(3803.578125 0)"/>
    <use xlink:href="#DejaVuSans-55" transform="translate(3864.859375 0)"/>
    <use xlink:href="#DejaVuSans-48" transform="translate(3903.765625 0)"/>
    <use xlink:href="#DejaVuSans-3" transform="translate(3965.296875 0)"/>
    <use xlink:href="#DejaVuSans-48" transform="translate(3997.078125 0)"/>
    <use xlink:href="#DejaVuSans-5b" transform="translate(4056.859375 0)"/>
    <use xlink:href="#DejaVuSans-46" transform="translate(4114.296875 0)"/>
    <use xlink:href="#DejaVuSans-4f" transform="translate(4169.28125 0)"/>
    <use xlink:href="#DejaVuSans-58" transform="translate(4197.0625 0)"/>
    <use xlink:href="#DejaVuSans-47" transform="translate(4260.4375 0)"/>
    <use xlink:href="#DejaVuSans-48" transform="translate(4323.921875 0)"/>
    <use xlink:href="#DejaVuSans-47" transform="translate(4385.453125 0)"/>
    <use xlink:href="#DejaVuSans-11" transform="translate(4448.9375 0)"/>
   </g>
  </g>
 </g>
 <defs>
  <clipPath id="p24bc090239">
   <rect x="95.04" y="44.928" width="673.2" height="258.336"/>
  </clipPath>
 </defs>
</svg>
